<?xml version="1.0" encoding="UTF-8"?>
<!DOCTYPE svg PUBLIC "-//W3C//DTD SVG 1.1//EN" "http://www.w3.org/Graphics/SVG/1.1/DTD/svg11.dtd">
<!-- Creator: CorelDRAW 2019 (64-Bit) -->
<svg xmlns="http://www.w3.org/2000/svg" xml:space="preserve" width="200mm" height="200mm" version="1.1" style="shape-rendering:geometricPrecision; text-rendering:geometricPrecision; image-rendering:optimizeQuality; fill-rule:evenodd; clip-rule:evenodd"
viewBox="0 0 20000 20000"
 xmlns:xlink="http://www.w3.org/1999/xlink">
 <defs>
  <style type="text/css">
   <![CDATA[
    .fil0 {fill:none}
    .fil1 {fill:#010002}
   ]]>
  </style>
 </defs>
 <g id="Слой_x0020_1">
  <metadata id="CorelCorpID_0Corel-Layer"/>
  <rect class="fil0" x="-7.61" y="7.58" width="20000" height="20000"/>
  <path class="fil1" d="M17599.76 4382.58c-459.14,-38.3 -496.27,-234.46 -1640.42,-234.46 -734.24,0 -1328.2,485.72 -1328.2,1210.97l0 1836.19 2851.39 0c0,647.5 -234.45,2287.53 -234.45,2734.17l-2616.94 0 0 9336.09 -3515.69 0 0 -9336.09 -1757.65 0 0 -2734.17 1757.65 0 0 -3008.09c0,-859.28 686.96,-1700.2 1389.94,-2164.43 898.76,-593.96 2033.14,-726.04 3297.65,-726.04 540.81,0 1808.05,188.35 2148.41,351.69l-351.69 2734.17zm-17607.36 -2421.95l0 16093.94c0,1010.51 942.52,1953.03 1953.03,1953.03l16093.94 0c1010.51,0 1953.03,-942.52 1953.03,-1953.03l0 -16093.94c0,-1010.51 -942.52,-1953.03 -1953.03,-1953.03l-16093.94 0c-1010.51,0 -1953.03,942.52 -1953.03,1953.03z"/>
 </g>
</svg>
