<?xml version="1.0" encoding="UTF-8"?>
<!DOCTYPE svg PUBLIC "-//W3C//DTD SVG 1.1//EN" "http://www.w3.org/Graphics/SVG/1.1/DTD/svg11.dtd">
<!-- Creator: CorelDRAW 2019 (64-Bit) -->
<svg xmlns="http://www.w3.org/2000/svg" xml:space="preserve" width="640mm" height="200mm" version="1.1" style="shape-rendering:geometricPrecision; text-rendering:geometricPrecision; image-rendering:optimizeQuality; fill-rule:evenodd; clip-rule:evenodd"
viewBox="0 0 64000 20000"
 xmlns:xlink="http://www.w3.org/1999/xlink">
 <defs>
  <style type="text/css">
   <![CDATA[
    .fil0 {fill:none}
    .fil1 {fill:#2B2A29}
   ]]>
  </style>
 </defs>
 <g id="Слой_x0020_1">
  <metadata id="CorelCorpID_0Corel-Layer"/>
  <rect class="fil0" x="-9004.15" y="7.58" width="82000" height="20000"/>
  <g id="_2657174363760">
   <path class="fil1" d="M-7697.95 9917c0,1828.29 215.63,2563.75 1438.57,3794.61 3329.31,3350.91 8869.68,468.32 7876.52,-3794.61l-4395.87 0 0 1360.63 3035.24 0c-17.53,787.94 -492.35,1475.15 -982.74,1843.16 -2088.1,1566.88 -5506.42,297.96 -5506.42,-2889.81 0,-1837.43 1433.29,-3349.25 3558.59,-3349.25 1136.9,0 1633.49,493.92 2302.61,941.98l859.5 -920.17c-1232.26,-1812.19 -5831.03,-2287.66 -7664.69,1232.16 -248.63,477.22 -521.31,1052.94 -521.31,1781.3z"/>
   <path class="fil1" d="M17107.42 12219.61c0,-1329.48 461.23,-1988.63 1883.95,-1988.63 1870.61,0 1794.39,3663.24 -104.64,3663.24 -994.28,0 -1779.31,-676.06 -1779.31,-1674.61zm-1465.27 -209.35c0,863.83 387.71,1642.9 810.46,2120.12 628.49,709.58 1291.56,1019.8 2329.45,1019.8 732.84,0 1043.8,-345.73 1465.3,-628 0,1520.1 -215.1,2093.3 -1779.28,2093.3 -700.59,0 -1076.58,-622.45 -1360.66,-1046.65 -432.45,100.75 -636.84,298.79 -1151.29,418.65 202.31,2431.22 5651.86,3003.91 5651.86,-941.97l0 -5965.82c-1363.95,0 -1316.78,-108.26 -1360.63,418.66 -2664.5,-1784.24 -4605.21,811.22 -4605.21,2511.91z"/>
   <path class="fil1" d="M36365.6 14208.2c-923.22,0 -1917.45,-819.56 -1988.59,-1674.61 -412.16,34.3 -616.57,213.79 -1046.65,313.98 214.71,2580.39 4477.13,3348.6 5622.81,912.9 520.04,-1105.57 31.48,-2415.64 -761.41,-2948.37 -1510.45,-1014.84 -3952.65,-1035.7 -3359.72,-2628.96 401.47,-1078.84 2675.77,-1118.33 2998.86,268.56 300.66,-70.05 796.4,-286.24 1046.65,-418.65 -686.59,-1297.56 -1682.3,-2015.95 -3337.21,-1665.36 -1848.7,391.66 -3179.43,2972.85 -363.2,4319.12 814.91,389.55 3198.86,749.31 2792.61,2395.94 -200.47,812.6 -1141.82,1125.45 -1604.15,1125.45z"/>
   <path class="fil1" d="M3710.44 12219.61c0,-2497.83 2262.58,-2277.98 2972.85,-1402.91 95.53,117.66 105.62,136.65 170.26,248.41 541.28,936.02 105.92,2829.11 -1468.5,2829.11 -873.12,0 -1674.61,-756.25 -1674.61,-1674.61zm-1465.3 -209.35c0,4163.84 6279.85,4163.84 6279.85,0 0,-878.15 -440.64,-1792.78 -913.35,-2226.59 -212.63,-195.13 -678.37,-500.98 -955.41,-614.53 -909.88,-372.87 -1632.45,-372.87 -2542.33,0 -1086.43,445.24 -1868.76,1526.39 -1868.76,2841.12z"/>
   <path class="fil1" d="M10408.94 12324.25c0,-3054.32 3349.26,-2439.35 3349.26,-418.66 0,2119.05 -1904.43,2335.99 -2801.69,1545.74 -209.05,-184.13 -547.57,-768.86 -547.57,-1127.08zm-1465.3 -209.31c0,1630.46 1358.29,3035.24 3244.59,3035.24 1999.06,0 3667.24,-2095.82 2787.71,-4357.69 -118.35,-304.37 -416.9,-729.34 -618.35,-951.59 -1129.01,-1245.52 -3344.59,-1210.83 -4497.69,-54.29 -180.68,181.21 -526.35,670.03 -638.5,931.47 -145.76,339.88 -277.76,951.29 -277.76,1396.86z"/>
   <path class="fil1" d="M26003.86 11905.59c191.22,-820.66 247.32,-1229.52 943.61,-1568.96 743.85,-362.67 1385.76,-167.6 1777.68,417.68l-2721.29 1151.28zm-1360.63 0c0,3489.23 4069.22,4247.41 5651.86,1883.96 -176.65,-241.12 -801.47,-651.14 -1151.29,-732.64 -86.18,322.74 -183.65,400.5 -482.97,563.65 -1068.48,582.45 -2132.22,120.92 -2342.96,-668.32l4081.89 -1674.61c-122.95,-527.74 -609.12,-1319.87 -962.92,-1653.7 -771.89,-728.3 -1942.19,-951.05 -3050.52,-475.79 -1063.56,456.03 -1743.09,1592.55 -1743.09,2757.45z"/>
   <path class="fil1" d="M63996.93 14208.2c-1506.92,0 -1687.54,-1860.01 175.43,-2023.75 2902.65,-255.12 1257.21,2023.75 -175.43,2023.75zm-2093.29 -3767.88c357.33,189.05 598.26,314.19 1046.65,418.66 287.31,-1233.24 2825.92,-1208.37 2825.92,732.63 -1149.74,-608.35 -3246.48,-443.57 -3940.39,769.57 -105.83,185.02 -224.8,601.09 -231.3,807.29 -18.13,574.26 244.88,1186.2 582.01,1489.51 347.71,312.82 996.21,596.87 1601.06,596.87 1286.61,0 1310.43,-487.84 1988.62,-941.98l0 732.64 1046.62 0 0 -3872.55c0,-2623.62 -4420.64,-2872.57 -4919.19,-732.64z"/>
   <path class="fil1" d="M46518.03 15045.51l1151.29 0c0,-1616.97 -271.85,-3756.19 442.45,-4581.39 523.17,-604.38 2488.15,-958.5 2488.15,1336.8l0 3244.59 1151.32 0c0,-1411.52 172.97,-4067 -435.33,-5111.87 -541.3,-929.81 -1794.53,-1225.66 -2919.98,-650.69 -454.34,232.13 -467.1,390.2 -831.25,634.05 0,-597.17 104.64,-723.94 104.64,-1360.63 0,-2440.92 283.51,-2093.29 -1151.29,-2093.29l0 8582.43z"/>
   <path class="fil1" d="M53739.83 12114.94c0,-2547.7 3767.91,-3110.43 3767.91,209.31 0,2488.71 -3767.91,2587.3 -3767.91,-209.31zm1883.95 3139.91c4108.71,0 3948.06,-6279.83 104.68,-6279.83 -1838.51,0 -3033.52,1329.42 -3126.89,3049.93 -16.23,299.3 133.42,1045.7 235.24,1306.99 175.93,451.58 306.6,649.86 612.42,957.55 312.47,314.4 434.32,497.31 882.85,687.1 356.73,150.95 827.6,278.26 1291.7,278.26z"/>
   <path class="fil1" d="M39924.2 12219.61c0,3027.08 4066.52,4356.67 5651.86,1360.6 -297.08,-157.19 -582.69,-334.93 -941.98,-418.66 -481.7,352.94 -406.37,1046.65 -1779.28,1046.65 -2318.93,0 -2457.06,-4186.56 104.64,-4186.56 787.02,0 1315.38,403.14 1465.3,1046.65 510.36,-42.46 626.36,-216.08 1046.64,-313.98 -42.84,-514.75 -456.3,-970.11 -853.47,-1239.82 -2063.51,-1401.25 -4693.71,15.72 -4693.71,2705.12z"/>
   <polygon class="fil1" points="22549.97,14940.84 24015.27,14940.84 24015.27,5939.78 22549.97,5939.78 "/>
   <path class="fil1" d="M59601.03 15045.51l1151.29 0 0 -8268.42c0,-241.18 -72.81,-314.01 -313.98,-314.01l-837.31 0 0 8582.43z"/>
   <path class="fil1" d="M69125.47 10126.31l0 -941.97 -1046.65 0 0 5861.17 1151.29 0c0,-1492.63 -253.22,-3683.44 398.33,-4416.23 666.27,-749.37 1450.43,-418.65 1694.96,-398.3 233.97,-1004.31 913.62,-1151.29 -523.32,-1151.29 -735.28,0 -1139.07,333.78 -1490.88,811.74l-183.73 234.88z"/>
  </g>
  <rect class="fil0" x="-7664.23" y="7.58" width="79349.31" height="23794.65"/>
 </g>
</svg>
