<?xml version="1.0" encoding="UTF-8"?>
<!DOCTYPE svg PUBLIC "-//W3C//DTD SVG 1.1//EN" "http://www.w3.org/Graphics/SVG/1.1/DTD/svg11.dtd">
<!-- Creator: CorelDRAW 2019 (64-Bit) -->
<svg xmlns="http://www.w3.org/2000/svg" xml:space="preserve" width="200mm" height="200mm" version="1.1" style="shape-rendering:geometricPrecision; text-rendering:geometricPrecision; image-rendering:optimizeQuality; fill-rule:evenodd; clip-rule:evenodd"
viewBox="0 0 20000 20000"
 xmlns:xlink="http://www.w3.org/1999/xlink">
 <defs>
  <style type="text/css">
   <![CDATA[
    .fil0 {fill:none}
    .fil1 {fill:black}
    .fil2 {fill:#090907}
   ]]>
  </style>
 </defs>
 <g id="Слой_x0020_1">
  <metadata id="CorelCorpID_0Corel-Layer"/>
  <rect class="fil0" x="-7.61" y="7.58" width="20000" height="20000"/>
  <path class="fil1" d="M1263.21 4502.87l0 11009.46c0,753.6 363.9,1458.71 791.28,2005.62l192.53 217.21c40.25,40.25 62.92,45.16 107.7,88.27 536.14,516.28 1405.06,913.36 2115.13,913.36l11027.28 0c738.33,0 1602.59,-400.58 2115.15,-895.54 46.99,-45.38 71.72,-51.78 116.86,-96.91l185.55 -206.37c433.21,-515.05 806.9,-1312.86 806.9,-2025.64l0 -11009.46c0,-739.52 -367.86,-1480.33 -798.97,-2015.76l-631.09 -580.29c-429.95,-321.61 -1198.74,-628.41 -1794.4,-628.41l-11027.28 0c-212.85,0 -511.87,61.94 -688.78,112.89 -524.33,150.98 -1016.99,404.55 -1408.55,782.65 -46.99,45.38 -71.72,51.78 -116.86,96.91l-185.55 206.37c-65.45,77.82 -117.31,149.45 -178.49,231.24 -321.37,429.63 -628.41,1199.14 -628.41,1794.4zm-1270.81 -801.39l0 12612.24c0,863.31 416.88,1671.07 906.48,2297.6l220.56 248.83c46.11,46.11 72.08,51.73 123.37,101.12 614.2,591.44 1609.62,1046.33 2423.06,1046.33l12632.65 0c845.82,0 1835.89,-458.9 2423.07,-1025.92 53.83,-51.98 82.17,-59.31 133.88,-111.01l212.56 -236.42c496.28,-590.03 924.37,-1503.98 924.37,-2320.53l0 -12612.24c0,-847.18 -421.41,-1695.84 -915.29,-2309.21l-722.96 -664.78c-492.54,-368.42 -1373.25,-719.89 -2055.63,-719.89l-12632.65 0c-243.84,0 -586.39,70.96 -789.05,129.32 -600.67,172.97 -1165.05,463.45 -1613.61,896.6 -53.83,51.98 -82.17,59.31 -133.88,111.01l-212.56 236.42c-74.98,89.14 -134.39,171.2 -204.48,264.9 -368.15,492.18 -719.89,1373.71 -719.89,2055.63z"/>
  <g id="_2656891880992">
   <path class="fil2" d="M6651.18 10140.9c-49.16,-254.05 201.69,-1198.72 274.86,-1391.78 613.81,-1619.45 2518.2,-2481.77 4316.93,-1800.01 397.47,150.65 704.53,383.54 1019.62,647.06 1694.74,1417.43 1453.89,5365.38 -2164.28,5729.63 -824.38,82.98 -1769.43,-386.22 -2391.88,-906.81 -487.72,-407.91 -884.64,-1227.4 -977.61,-1889.08l-77.64 -389.01zm-1799.99 -533.31c0,1694.37 262.36,2829.59 1483.03,4050.28 1998.41,1998.41 5302.17,1998.41 7300.58,0 1998.41,-1998.41 1998.41,-5302.17 0,-7300.58 -1998.41,-1998.41 -5302.17,-1998.41 -7300.58,0 -661.38,661.4 -1483.03,1966.27 -1483.03,3250.3z"/>
   <path class="fil2" d="M14117.83 4474.24c0,2091.42 2400.02,1528 2400.02,400.02l0 -400.02c0,-448.97 -551.03,-1000 -1000,-1000l-400.02 0c-424.28,0 -1000,575.72 -1000,1000z"/>
  </g>
 </g>
</svg>
