<?xml version="1.0" encoding="UTF-8"?>
<!DOCTYPE svg PUBLIC "-//W3C//DTD SVG 1.1//EN" "http://www.w3.org/Graphics/SVG/1.1/DTD/svg11.dtd">
<!-- Creator: CorelDRAW 2019 (64-Bit) -->
<svg xmlns="http://www.w3.org/2000/svg" xml:space="preserve" width="200mm" height="200mm" version="1.1" style="shape-rendering:geometricPrecision; text-rendering:geometricPrecision; image-rendering:optimizeQuality; fill-rule:evenodd; clip-rule:evenodd"
viewBox="0 0 20000 20000"
 xmlns:xlink="http://www.w3.org/1999/xlink">
 <defs>
  <style type="text/css">
   <![CDATA[
    .fil0 {fill:none}
    .fil1 {fill:#090907}
   ]]>
  </style>
 </defs>
 <g id="Слой_x0020_1">
  <metadata id="CorelCorpID_0Corel-Layer"/>
  <rect class="fil0" x="-7.61" y="7.58" width="20000" height="20000"/>
  <g id="_2657104102240">
   <path class="fil1" d="M1792.39 10007.6c0,-7886.58 313.43,-8200.01 8200.01,-8200.01 7886.58,0 8200.01,313.43 8200.01,8200.01 0,7886.58 -313.43,8200.01 -8200.01,8200.01 -7886.58,0 -8200.01,-313.43 -8200.01,-8200.01zm-1799.99 -3000l0 6133.32c0,4773.52 2092.26,6866.68 6866.68,6866.68l6266.64 0c4774.42,0 6866.68,-2093.16 6866.68,-6866.68l0 -6266.64c0,-4870.38 -2126.55,-6866.68 -7000,-6866.68l-6000 0c-4965.79,0 -7000,2034.21 -7000,7000z"/>
   <path class="fil1" d="M6659.07 10140.92c-153.03,-790.84 583.07,-2023.43 924.04,-2409.29 1756.23,-1987.6 5492.55,-1050.74 5724.13,2161.64 257.38,3570.56 -5657.39,5368.25 -6648.17,247.65zm-1799.99 -533.31l0 799.98c0,2334.62 2398.71,4733.33 4733.33,4733.33l799.98 0c2334.62,0 4733.33,-2398.71 4733.33,-4733.33l0 -799.98c0,-2334.62 -2398.71,-4733.33 -4733.33,-4733.33l-799.98 0c-2334.62,0 -4733.33,2398.71 -4733.33,4733.33z"/>
   <path class="fil1" d="M14125.72 4474.26c0,2091.42 2400.02,1528 2400.02,400.02l0 -400.02c0,-448.97 -551.03,-1000 -1000,-1000l-400.02 0c-424.28,0 -1000,575.72 -1000,1000z"/>
  </g>
 </g>
</svg>
