<?xml version="1.0" encoding="UTF-8"?>
<!DOCTYPE svg PUBLIC "-//W3C//DTD SVG 1.1//EN" "http://www.w3.org/Graphics/SVG/1.1/DTD/svg11.dtd">
<!-- Creator: CorelDRAW 2019 (64-Bit) -->
<svg xmlns="http://www.w3.org/2000/svg" xml:space="preserve" width="632.426mm" height="237.947mm" version="1.1" style="shape-rendering:geometricPrecision; text-rendering:geometricPrecision; image-rendering:optimizeQuality; fill-rule:evenodd; clip-rule:evenodd"
viewBox="0 0 63242.6 23794.7"
 xmlns:xlink="http://www.w3.org/1999/xlink">
 <defs>
  <style type="text/css">
   <![CDATA[
    .fil0 {fill:none}
    .fil1 {fill:#2B2A29}
   ]]>
  </style>
 </defs>
 <g id="Слой_x0020_1">
  <metadata id="CorelCorpID_0Corel-Layer"/>
  <rect class="fil0" x="-1.72" y="10.54" width="64000" height="20000"/>
  <g id="_2657369675936">
   <path class="fil1" d="M27317.01 6821.16c993.26,0 1860.39,335.98 2557.32,921.99 609.71,512.66 1124.67,1587.03 1124.67,2388.42 0,776.98 6.94,1170.41 -360.28,1902.97 -176.21,351.5 -447.55,746.44 -746.26,1010.28 -310.61,274.36 -679.68,495.77 -1069.67,653.09 -217.61,87.79 -424.81,152.47 -675.56,202.72 -1190.64,238.59 -2550.83,-93.13 -3372.3,-922.96 -598.39,-604.48 -1031.99,-1366.83 -1048.87,-2547.11 -30.9,-2160.41 1678.22,-3609.4 3590.95,-3609.4zm-4999.4 3377.97c0,925.44 82.94,1520.65 461.22,2308.73 132.61,276.28 266.27,508.38 440.86,741.42 941.79,1257.11 2306.35,1983.02 4198.65,1983.02 1551.74,0 3168.85,-692.29 4053.73,-1925.27 1248.82,-1740.12 1283.56,-4119.22 19.63,-5796.27 -264.23,-350.59 -536.76,-640.61 -888.06,-902.28 -126.35,-94.11 -227.86,-157.32 -361.09,-246.95 -217.96,-146.61 -548.02,-306.19 -806.76,-409.3 -1545.87,-616.08 -3500.58,-485.42 -4895.35,389.4 -225.22,141.26 -513.87,338.61 -694.59,521.46 -453.52,458.84 -754.18,802.59 -1044.53,1387.61 -239.39,482.33 -483.71,1244.04 -483.71,1948.43z"/>
   <path class="fil1" d="M58259.23 13881.12l-2161.91 0 0 -6958.61c1367.8,0 3102.95,-149.13 4237.39,491.77 212.4,120 358.83,221.43 545.57,366.47 169.66,131.78 304.97,302.66 438.66,473.41 162.45,207.49 218.93,327.81 341.21,570.83 446.24,886.84 406.08,2094.24 40.31,2991.27 -575.36,1411.01 -1928.13,2064.86 -3441.23,2064.86zm-3513.09 1216.06l3952.22 0c1285.26,0 2698.84,-636.61 3523.21,-1611.31 93.88,-111 174.91,-194.15 265.18,-309.07 158.66,-201.99 315.72,-478.27 434.24,-714.27 552.28,-1099.77 636.42,-2540.44 197.83,-3711.24 -145.15,-387.48 -343.98,-798.18 -593.49,-1129.27 -92.57,-122.82 -149.99,-209.63 -254.78,-319.48 -370.45,-388.35 -445.93,-491.31 -936.95,-819.59 -718.93,-480.64 -1780.55,-776.51 -2736.57,-776.51l-3850.89 0 0 9390.74z"/>
   <path class="fil1" d="M36336.19 9793.78l-1047.17 0 0 -2905.06c1190.39,0 2702.38,-197.8 2702.38,1486.31 0,455.16 -209.53,847.91 -467.03,1053.06 -253.84,202.22 -738.61,365.69 -1188.18,365.69zm-2398.35 5303.4l1351.18 0 0 -4053.56 743.16 0c1009.69,0 1924.18,1556.16 2418.19,2310.97l1128.68 1742.59 1621.42 0c-494.82,-738.94 -866.9,-1198.45 -1365.47,-2012.49 -433.81,-708.3 -1045.98,-1704.62 -1679.06,-2205.6 -86.55,-68.49 -188.31,-177.31 -299.66,-207.04 111.15,-151.71 1553.87,-558.06 1553.87,-2330.8 0,-1685.32 -1330.34,-2634.81 -2905.06,-2634.81l-2567.25 0 0 9390.74z"/>
   <path class="fil1" d="M46132.3 15232.3c1413.98,0 1987.86,-168.46 3161.08,-656.03 135.78,-56.44 211.21,-121.87 352.02,-154.67l0 -1486.31c-121.19,28.23 -865.27,498.7 -1465.21,696.69 -1159.91,382.77 -2195.91,507.57 -3369.62,84.57 -3839.36,-1383.69 -2663.39,-7880.9 2664.76,-6752.09 579.24,122.7 1070.3,337.17 1573.29,588.6l495.44 247.72 0 -1452.53c-859.69,-412.49 -2264.64,-776.93 -3242.86,-776.93 -1654.92,0 -3206.46,665.65 -4184.16,1963.74 -482.16,640.18 -796.74,1396.44 -911.32,2196.4 -28.95,202.09 -19.66,385.49 -48.32,593.59 -158.57,1151.5 579.79,2684.86 1402.4,3514.15 897.48,904.78 2252.73,1393.1 3572.5,1393.1z"/>
   <polygon class="fil1" points="51503.28,15097.18 52854.47,15097.18 52854.47,5706.44 51503.28,5706.44 "/>
   <path class="fil1" d="M51300.61 3679.65c0,426.79 136.59,707.49 505.94,879.02 884.28,410.67 1683.75,-655.01 1039.22,-1410.8 -487.11,-571.18 -1545.16,-211.31 -1545.16,531.78z"/>
  </g>
  <g id="_2657369663360">
   <path class="fil1" d="M5537.05 6185.81l1187.36 -3.78 20.02 120.5 -3.34 8247.95 -1204.32 -1.21 0.28 -8363.46zm6442.55 8350.06l-179.57 31.96c-75.72,3.13 -158.61,0.52 -235.07,0.46 -732.02,-0.53 -2589.71,34.13 -3057.74,-7.59l-11.85 -8379.77 3371.2 -5.36c17.37,0.48 85.65,2.17 99.18,4.11 127.07,18.3 -50.95,-17.39 55.73,12.23l45.49 21.34c417.06,-86.21 1360.69,198.82 1702.78,351.32 2418.41,1078.06 3160.44,4047.1 1682.79,6192.73 -128.01,185.87 -341.94,441.72 -487.32,579 -332.22,313.73 -739.16,598.58 -1263.21,837.2 -329.85,150.19 -1321.96,442.23 -1722.41,362.37zm-6076.17 -10841.87c1035.97,-313.73 1416.67,1201.69 480.83,1495.47 -460.66,144.6 -877.48,-147.29 -988.98,-481.85 -163.59,-490.81 127.36,-898.31 508.15,-1013.62zm-5905.13 5770.45l0 1222.82c91.06,210.9 99.99,756.27 148.21,1037.47 356.8,2080.48 1380.65,3977.86 2818.87,5377.89 1504.74,1464.8 3275.69,2416.13 5400.53,2767.05 222.18,36.68 935.55,83.21 1065.43,133.28l1104.94 0c104.33,-38.64 839.39,-92.63 1035.77,-123.72 339.55,-53.77 638.75,-120.17 966.92,-202.97 1139.91,-287.6 2308.03,-851.29 3230.42,-1502.68 492.03,-347.46 888.03,-700.51 1279.14,-1087 1163.02,-1149.28 2154.08,-2725.86 2603.08,-4464.68 80.55,-311.94 152.53,-627.73 207.74,-955.3 38.9,-230.77 82.69,-927.02 138.95,-1067.85l0 -1011.24c-47.92,-171.34 -68.85,-789.76 -105.52,-1041.56 -281.08,-1930.29 -1038.93,-3473.52 -2217.48,-4953.53 -766,-961.9 -2088.5,-2020.06 -3357.65,-2609.59 -2226.06,-1034.02 -3429.72,-847.99 -3810.69,-979.88l-1105.34 0c-155.88,61.47 -802.78,94.92 -1036.97,133.05 -2311.69,376.35 -4159.56,1461.26 -5736.54,3095.89 -1269.99,1316.42 -2199.18,3319.6 -2501.75,5167.37 -34.38,209.91 -86.99,951.81 -128.06,1065.18z"/>
   <path class="fil1" d="M9709.78 13459.67c442.98,64 1596.15,24.81 2088.75,7.33 654.92,-23.23 1163.07,-156.92 1670.34,-426.56 2227.24,-1183.93 2244.11,-5628.02 -1702.75,-5766.91 -498,-17.52 -1602.61,-54.12 -2056.34,7.57l0 6178.57z"/>
   <path class="fil1" d="M11979.6 14535.87l-3457.02 -1.52 0 -8321.82 3544.39 0.72 -45.49 -21.34c-106.68,-29.62 71.34,6.07 -55.73,-12.23 -13.53,-1.94 -81.81,-3.63 -99.18,-4.11l-3371.2 5.36 11.85 8379.77c468.03,41.72 2325.72,7.06 3057.74,7.59 76.46,0.06 159.35,2.67 235.07,-0.46l179.57 -31.96z"/>
  </g>
  <rect class="fil0" x="-1.72" y="10.54" width="64000" height="23794.65"/>
  <rect class="fil0" x="146.49" y="10.54" width="63242.61" height="23794.65"/>
 </g>
</svg>
