<?xml version="1.0" encoding="UTF-8"?>
<!DOCTYPE svg PUBLIC "-//W3C//DTD SVG 1.1//EN" "http://www.w3.org/Graphics/SVG/1.1/DTD/svg11.dtd">
<!-- Creator: CorelDRAW 2019 (64-Bit) -->
<svg xmlns="http://www.w3.org/2000/svg" xml:space="preserve" width="507.624mm" height="237.947mm" version="1.1" style="shape-rendering:geometricPrecision; text-rendering:geometricPrecision; image-rendering:optimizeQuality; fill-rule:evenodd; clip-rule:evenodd"
viewBox="0 0 50762.4 23794.7"
 xmlns:xlink="http://www.w3.org/1999/xlink">
 <defs>
  <style type="text/css">
   <![CDATA[
    .fil0 {fill:none}
    .fil3 {fill:black}
    .fil4 {fill:#D5D5D5}
    .fil2 {fill:#D6D6D6}
    .fil1 {fill:#EEEEEE}
   ]]>
  </style>
 </defs>
 <g id="Слой_x0020_1">
  <metadata id="CorelCorpID_0Corel-Layer"/>
  <rect class="fil0" x="-1.89" y="-35.16" width="50760.52" height="23794.65"/>
  <g id="_2657189262640">
   <path class="fil1" d="M-1.88 6991.47l0 16773.6 83.84 72.68 9346.35 5.58c-65.23,-128.82 -190.38,-216.41 -293.47,-319.51 -106.36,-106.36 -193.62,-193.61 -299.98,-299.97 -460,-460 -4041.11,-4081.19 -4245.38,-4225.7 -59.53,-70.15 -50.65,-465.24 -2.1,-508.1 270.34,-135.9 677.56,148.79 835.28,-205.2 123.62,-277.42 75.34,-2682.14 75.34,-3076.14 0,-1392.47 26.28,-2811.89 -0.81,-4200.07l-35.61 -71.08c-63.13,-138.95 -187.24,-234.44 -326.2,-370.62 -117.91,-115.6 -309.95,-282.87 -408.67,-416.93 -122.1,-157.2 -181.63,-73.85 -135.94,-393.05 277.55,-158.89 771.23,-344.01 1102.01,-488.2 313.62,-136.68 930.79,-483.02 1144.28,-346.78 92.4,121.61 155.84,172.95 250.12,267.2 74.87,74.87 157.72,202.58 255.79,211.91 107.97,-21.29 1675.86,-1253.9 3171.11,91.08 100.32,90.24 216.63,245.04 309.68,301.42 159.85,147.43 1913.96,1962.99 2061.83,2036.84l-4.69 -1552.19 -778.52 -777.32c-75.58,-78.88 -55.16,-43.38 -59.41,-186.16 -11.18,-377 91.79,-271.84 1207.08,-271.84 200.24,0 400.44,0.21 600.68,0.46 202.09,0.28 386.37,-73.73 547.14,-41.84l0 -5479.57 -83.87 -72.69 -10768.11 -5.57c0,359.13 45.29,3410.56 -45.94,3501.86 -91.14,91.13 -3142.76,45.9 -3501.83,45.9z"/>
   <path class="fil2" d="M4589.48 18998.15c204.27,144.51 3785.38,3765.7 4245.38,4225.7 106.36,106.36 193.62,193.61 299.98,299.97 103.09,103.1 228.24,190.69 293.47,319.51l4891.3 0 72.65 -83.83 -1.32 -8550.79c-145.71,-94.32 -401.07,-35.68 -795.32,-423.78 -831.49,-818.42 -723.59,-1803.66 -710.03,-2954.5 -147.87,-73.85 -1901.98,-1889.41 -2061.83,-2036.84 64.15,194.45 663.2,645.95 564.48,2098.15 -128.38,1888.09 -1399.91,3433.12 -3303.77,3317.61 -636.03,-38.57 -676.64,-144.75 -1085.59,-238.93 0,450.88 -27.58,2986.64 110.49,3327.4 72.25,178.34 202.39,168.57 401.22,167.52 166.47,-0.86 391.85,-13.58 532.96,20.8 29.82,104.76 52.38,383.41 -11.03,476.12 -45.72,49.08 -90.21,42.15 -207.48,37.99l-1487.91 -45.42c-576.23,0.4 -1194.01,58.48 -1747.65,43.32z"/>
   <path class="fil3" d="M23319.44 14660.89l-208.68 0c-399.13,0 -810.51,-334.88 -948.88,-616.31 -147.62,-300.19 -198.95,-917.7 -198.95,-1366.27l0 -2478.2c0,-78.79 107.31,-126.05 171.77,-167.37 71.94,-46.15 152.7,-100.01 230.22,-135.01 308.6,-139.29 473.56,-141.08 798,-141.08 649,0 1090.85,396.87 1329.57,809.49 708.41,1224.36 558.05,4094.75 -1173.05,4094.75zm-3886.87 -8921.57c0,295.05 28.1,205.57 323.42,302.63 563.16,185.05 573.54,330.2 657.01,908.18 30.53,211.23 10.84,1731.1 10.84,2076.09 0,715.61 26.1,1344.24 26.1,2060.84 0,218.82 19.84,2984.79 -18.98,3267.91l-33.22 749.38c341.88,228.92 427.63,119.79 911.85,-185.17 96.81,-60.95 80.91,-88.24 191.92,-34.94 849.57,407.93 2174.53,492.26 3035.75,29.27 1050.16,-564.58 1912.55,-1786.1 1912.55,-3043.86 0,-1280.86 -417.45,-2117.75 -1371.11,-2698.38 -793.07,-482.86 -2026.58,-351.61 -2761.45,130.98l-354.32 271.78c0,-426.08 0,-852.16 0,-1278.24 0,-811.41 52.38,-1708.28 52.19,-2504.3 -0.09,-281.58 121.92,-1147.8 -78.26,-1147.8 -304.16,0 -366.92,108.21 -677.86,261.25 -101.31,49.85 -195.71,83.56 -304.6,138.89 -105.96,53.86 -195.86,88.09 -304.53,138.9l-945.37 385.07c-99.64,37.99 -271.93,66.98 -271.93,171.52z"/>
   <path class="fil3" d="M8044.81 9726.89c626.17,-103.74 1073.94,263.95 1310.97,610.88 263.86,386.18 427.62,904.88 503.94,1450.51 81.19,580.51 79.59,1238.56 -97.79,1784.77 -434.56,1338.05 -1723.53,1285.25 -2458.05,695.65 -414.01,-332.32 -305.18,-1008.37 -305.18,-1642.55 0,-660.83 1.51,-1321.85 -0.04,-1982.64 -0.61,-257.34 -51.57,-362.28 342.25,-639.82 200.21,-141.08 415.3,-228.99 703.9,-276.8zm-3318.1 423.12c146.26,40.79 424.02,205.82 526.4,298.83 162.84,147.89 227.79,261.43 244.08,559.8 27.09,1388.18 0.81,2807.6 0.81,4200.07 0,394 48.28,2798.72 -75.34,3076.14 -157.72,353.99 -564.94,69.3 -835.28,205.2 -48.55,42.86 -57.43,437.95 2.1,508.1 553.64,15.16 1171.42,-42.92 1747.65,-43.32l1487.91 45.42c117.27,4.16 161.76,11.09 207.48,-37.99 63.41,-92.71 40.85,-371.36 11.03,-476.12 -141.11,-34.38 -366.49,-21.66 -532.96,-20.8 -198.83,1.05 -328.97,10.82 -401.22,-167.52 -138.07,-340.76 -110.49,-2876.52 -110.49,-3327.4 408.95,94.18 449.56,200.36 1085.59,238.93 1903.86,115.51 3175.39,-1429.52 3303.77,-3317.61 98.72,-1452.2 -500.33,-1903.7 -564.48,-2098.15 -93.05,-56.38 -209.36,-211.18 -309.68,-301.42 -1495.25,-1344.98 -3063.14,-112.37 -3171.11,-91.08 -47.14,97.89 -120.8,116.99 -190.19,180.43 -67.29,61.53 -102.94,115.29 -163.48,176.58 -53.4,-87.54 -64.86,-309.47 -80.11,-416.81 -21.44,-150.94 -36.85,-277.14 -72.13,-419.31 -213.49,-136.24 -830.66,210.1 -1144.28,346.78 -330.78,144.19 -824.46,329.31 -1102.01,488.2 -45.69,319.2 13.84,235.85 135.94,393.05z"/>
   <path class="fil3" d="M38449.62 9860.97l0 156.52c0,238.51 834.75,176.79 834.75,1121.73l0 3078.21c0,569.23 -808.69,146.26 -808.69,417.36 0,424.85 -59.09,513.4 275.51,458.99 227.94,-37.06 1375.92,-42.95 1707.97,-42.49l741.24 42.77c338.24,54.47 275.24,-63.56 275.24,-459.27 0,-127.52 -258.38,-100.62 -393.33,-102.29 -113.57,-1.42 -134.74,-5.02 -187.46,-73.42 -32.41,-42.09 -71.38,-122.47 -71.38,-189.49l0 -3391.24c0,-298.99 135.41,-657.14 292.51,-803.15 376.29,-349.7 684.22,-344.65 1168.35,-344.65 323.45,0 600.5,209.33 746.3,401.53 168.04,221.53 218.91,576.59 218.91,954.98 0,1056.68 25.66,2033.69 -53.8,3076.58 -11.68,153.09 -47.48,352.99 -232.16,367.81 -515.25,41.38 -496.64,-83.55 -496.64,390.32 0,95.76 40.4,126.07 78.26,182.58 158.8,0 213.98,-19.44 338.98,-26.19 118.1,-6.38 247.38,6.63 365.48,0.25l1252.36 -26.56c260.26,-1.51 911.94,87.38 1173.56,26.43 9.95,-119.73 65.5,-354.1 -1.21,-468.35 -48.25,-82.63 -0.95,-39.62 -119.14,-63.47 -388.12,-78.32 -755.14,157.2 -792.02,-355.8 -16.95,-235.52 -8.01,-544.92 18.3,-736.87l7.12 -2705.87c0,-658.73 -167.31,-933.44 -554.29,-1323.94 -569.51,-574.71 -1471.89,-684.86 -2181.9,-447.06 -89.59,30.01 -161.41,63.84 -241.83,97.33 -275.26,114.65 -612.21,343.45 -824.06,558.51 -67.26,68.27 -97.52,140.16 -215.25,149.95 -234.74,-1007.6 160.34,-1207.93 -1339.06,-452.11l-765.44 356.29c-78.44,35.77 -217.18,83.19 -217.18,174.08z"/>
   <path class="fil3" d="M14397.87 9001.54c-160.77,-31.89 -345.05,42.12 -547.14,41.84 -200.24,-0.25 -400.44,-0.46 -600.68,-0.46 -1115.29,0 -1218.26,-105.16 -1207.08,271.84 4.25,142.78 -16.17,107.28 59.41,186.16 578.53,61 769.09,158.61 778.52,777.32l4.69 1552.19c-13.56,1150.84 -121.46,2136.08 710.03,2954.5 394.25,388.1 649.61,329.46 795.32,423.78 378.54,0 267.77,67.29 808.5,-7.09 205.67,-28.28 504.19,-123.03 676.98,-209.98 424.29,-213.48 456.8,-247.01 758.59,-545.75 46.4,-45.9 56.88,-55.21 98.35,-110.33 57.77,-76.9 28.99,-82.57 142.71,-92.06 0,159.32 60.27,825.73 112.46,904.97 122.54,186.07 536.29,-7.95 774.34,-70.34 215.06,-56.38 1391.1,-352.75 1565.34,-469.4 -3.11,-139.51 -30.5,-281.03 -104.36,-391.3 -487.7,0 -887.78,287.1 -913.87,-625.21 -26.32,-920.2 0.86,-2217.17 0.86,-3183.43 0,-288.02 18.3,-486.32 25.29,-757.27 2.44,-93.05 19.85,-249.53 34.73,-357.34 27.54,-199.35 41.28,-168.84 -60.02,-320.13 -135.79,0 -219.56,32.08 -319.26,45.94l-1820.21 5.83c-403.22,-3.61 -312.67,44.55 -312.67,443.86 500.03,239.92 914.25,-156.89 913.05,808.69 -0.71,573.88 0,1147.82 0,1721.7 0,434.8 58.35,1350.93 -62.09,1659.66 -283.18,725.99 -1679,1178.91 -2111.18,148.38 -197.81,-471.65 -147.55,-749.63 -193.49,-1084.75 -18.37,-133.97 -15.84,-295.02 3.88,-425.32 64.98,-429.25 7.02,-1555.88 14.05,-2125.08l51.92 -809.09c14.97,-171.8 20.33,-294.58 -76.97,-362.33z"/>
   <path class="fil3" d="M34119.26 9469.68l234.78 0c405.9,0 842.27,515.92 999.84,800.12 392,707.14 382.73,1216.93 382.73,1991.15 0,813.16 -392.75,2321.68 -1304.31,2321.68 -745.87,0 -1026.25,-149.95 -1382.61,-860.85 -164.71,-328.57 -290.73,-782.32 -287.46,-1199.43 1.57,-200.64 -25.54,-293.6 -26.81,-469.56 -1.38,-194.54 29.55,-274.8 27.33,-470.11 -1.82,-160.99 14.3,-303.3 36.51,-459.11 99.49,-697.77 553.15,-1653.89 1320,-1653.89zm-3026.05 2321.71l0 469.56c0,1039.06 668.56,1973.4 1330.19,2452.35 697.84,505.14 1649.3,605.37 2498.17,436.87 1494.54,-296.68 2615,-1718.32 2615,-3150.1 0,-541.8 -148.38,-1046.08 -400.14,-1504.18l-318.86 -463.7c-547.29,-702.76 -1418.06,-1162.49 -2333.11,-1162.49 -634.15,0 -962.99,27.97 -1546.76,279.3 -310.79,133.81 -649.74,390.4 -872.78,614.15 -258.63,259.46 -463.24,513.8 -632.61,854.32 -147.43,296.46 -339.1,740.78 -339.1,1173.92z"/>
   <path class="fil3" d="M26919.37 5713.23c0,414.31 80.29,173.15 643.88,451.78 538.51,266.2 476.12,862.11 476.95,1453.43 0.25,170.51 28.13,251.33 27.14,442.41l-0.15 6078.32c0,514.33 -452.09,375 -809.03,390.96 -341.14,15.25 -286.6,70.86 -286.6,417.7 0,70.47 12.45,71.94 26.07,130.45 159.41,37.13 1437.72,-26.09 1826.06,-26.09l1532 33.21c433.82,60.11 372.32,35.71 372.32,-450.61 0,-158.33 -581.86,-94.18 -784.04,-102.87 -274.13,-11.77 -312.27,-291.13 -312.49,-574.47l-25.2 -5139.91c0,-102.63 -3.88,-212.29 -0.83,-313.9 3.91,-131.35 26.22,-144.44 27.98,-285.07l-1.24 -1853.36c-1.14,-224.91 26.56,-360.73 26.28,-599.79 -0.24,-199.99 -0.03,-400.01 0,-600.01 0,-181.01 50.44,-478.77 -94.52,-532.53 -165.03,-61.22 -721.96,272.67 -881.5,339.1 -613.19,255.36 -1025.66,373.21 -1622.06,569.23 -94.19,30.94 -141.02,56.51 -141.02,172.02z"/>
   <path class="fil3" d="M49614.64 13747.88c0,519.25 -434.71,886.91 -965.21,886.91 -335.53,0 -506.81,-14.63 -781.7,-183.51 -308.26,-189.33 -522.61,-629.61 -706.67,-936.73 -51.24,-85.5 -103.19,-172.02 -156.59,-260.82 -160.46,-266.94 -67.75,-277.48 -396.22,-190.53 -87.94,23.26 -176.18,19.5 -176.18,110.76 0,149.74 211.52,1489.89 246.43,1553.57 158.83,289.9 1007.08,473.17 1344.83,481.18 330.5,7.85 340.24,58.91 812.81,-21.97 2038.2,-348.9 2283.17,-2306.34 1541.37,-3140.88 -130.26,-146.54 -319.35,-316.64 -493.52,-419.49 -500.22,-295.35 -810.17,-320.68 -1342.21,-483.82 -291.6,-89.42 -712.81,-219.53 -858.51,-498 -517.22,-988.59 1030.09,-1745.89 1842.08,-694.29l344 386.4c74.41,74.32 94.41,121.95 168.78,196.45 137.79,138 126.79,188.72 202.58,188.72 114.84,0 214.79,-101.46 339.11,-130.43 0,-256.86 -118.78,-787.49 -174.91,-1077.23 -27.92,-144.01 -69.36,-197.87 -174.73,-268.76 -501.73,-337.54 -1093.78,-375.71 -1711.17,-375.71 -898.2,0 -1972.29,724.27 -2034.04,1722.44 -45.56,737.18 112.34,1242.51 802.53,1674.23 822.4,514.45 2327.14,508.16 2327.14,1481.51z"/>
   <path class="fil4" d="M8044.81 9726.89c-288.6,47.81 -503.69,135.72 -703.9,276.8 -393.82,277.54 -342.86,382.48 -342.25,639.82 1.55,660.79 0.04,1321.81 0.04,1982.64 0,634.18 -108.83,1310.23 305.18,1642.55 734.52,589.6 2023.49,642.4 2458.05,-695.65 177.38,-546.21 178.98,-1204.26 97.79,-1784.77 -76.32,-545.63 -240.08,-1064.33 -503.94,-1450.51 -237.03,-346.93 -684.8,-714.62 -1310.97,-610.88z"/>
   <path class="fil3" d="M-1.88 6991.47c359.07,0 3410.69,45.23 3501.83,-45.9 91.23,-91.3 45.94,-3142.73 45.94,-3501.86l-3547.77 3547.76z"/>
   <path class="fil2" d="M12880.9 10278.24c-9.43,-618.71 -199.99,-716.32 -778.52,-777.32l778.52 777.32z"/>
   <path class="fil2" d="M7342.97 9401.09c-98.07,-9.33 -180.92,-137.04 -255.79,-211.91 -94.28,-94.25 -157.72,-145.59 -250.12,-267.2 35.28,142.17 50.69,268.37 72.13,419.31 15.25,107.34 26.71,329.27 80.11,416.81 60.54,-61.29 96.19,-115.05 163.48,-176.58 69.39,-63.44 143.05,-82.54 190.19,-180.43z"/>
   <path class="fil4" d="M5497.19 11008.64c-16.29,-298.37 -81.24,-411.91 -244.08,-559.8 -102.38,-93.01 -380.14,-258.04 -526.4,-298.83 98.72,134.06 290.76,301.33 408.67,416.93 138.96,136.18 263.07,231.67 326.2,370.62l35.61 71.08z"/>
  </g>
 </g>
</svg>
