<?xml version="1.0" encoding="UTF-8"?>
<!DOCTYPE svg PUBLIC "-//W3C//DTD SVG 1.1//EN" "http://www.w3.org/Graphics/SVG/1.1/DTD/svg11.dtd">
<!-- Creator: CorelDRAW 2019 (64-Bit) -->
<svg xmlns="http://www.w3.org/2000/svg" xml:space="preserve" width="640mm" height="200mm" version="1.1" style="shape-rendering:geometricPrecision; text-rendering:geometricPrecision; image-rendering:optimizeQuality; fill-rule:evenodd; clip-rule:evenodd"
viewBox="0 0 64000 20000"
 xmlns:xlink="http://www.w3.org/1999/xlink">
 <defs>
  <style type="text/css">
   <![CDATA[
    .fil0 {fill:none}
    .fil1 {fill:#1F1B20}
    .fil2 {fill:#2B2A29;fill-rule:nonzero}
   ]]>
  </style>
 </defs>
 <g id="Слой_x0020_1">
  <metadata id="CorelCorpID_0Corel-Layer"/>
  <rect class="fil0" x="-18004.15" y="7.58" width="99999.99" height="20000"/>
  <path class="fil1" d="M-18004.13 7.58l20000 0 0 20000.01 -20000 0 0 -20000.01zm3112.13 5727.28l4530.9 0c1324.27,0 2861.02,437.58 3368.16,1563.88 301.25,669.01 328.31,1206.98 235.53,1924.33 -64.02,495.01 -326.24,1056.02 -639.01,1410.8 -371.37,421.2 -1025.97,970.09 -1591.69,1100.98 301.19,565.34 618.79,1056 970.18,1581.89 627.02,938.39 1221.47,1645.33 1993.78,2474.37 483.81,519.35 1125.98,1232.72 1841.54,1398.28 -58.29,120.67 -41.76,48.65 -45.78,227.28 -1089.88,0 -1789.22,-183.37 -2413.88,-738.94 -1037.01,-922.35 -1943.15,-2221.1 -2651.6,-3411.92 -98.16,-164.98 -177.82,-286.61 -279.56,-449.62 -91.01,-145.83 -233.82,-307.8 -367.59,-407.66 -528,-394.13 -1568.17,-310.04 -2296.51,-310.04l0 3136.37c0,949.47 78.36,1497.29 917.48,1679.68 219.39,47.69 565.37,93.04 821.64,93.04l0 227.28 -4485.13 0 0 -227.28c1323.2,0 1784.91,-342.85 1784.91,-1545.45l0 -8000c0,-1188.42 -439.91,-1454.55 -1693.37,-1454.55l0 -272.72zm2654.47 772.73l0 5227.27c1258.51,0 2649.77,148.39 3581.64,-670.05 173.04,-151.97 470.14,-566.35 565.12,-802.36 357.54,-888.34 361.06,-2197.31 -164.27,-2982.94 -262.6,-392.74 -565.73,-648.43 -1006.55,-863.94 -812.29,-397.11 -1644.31,-304.79 -2426.45,-316.79 -419.64,-6.44 -549.49,-12.49 -549.49,408.81zm7643.01 -1545.47c0,1301.24 514.46,2636.37 1830.67,2636.37 490.71,0 720.98,-83.9 1144.16,-181.82l0 -1681.81 -823.8 0 0 -454.55 1418.76 0 0 2272.73c0,151.18 -206.17,193.32 -345.87,247.38 -159.73,61.84 -291.85,113.43 -440.71,153.23 -1561.52,417.46 -2833.4,-74.96 -3241.73,-1627.03 -285.83,-1086.42 -255.9,-2308.38 431.96,-3254.5 1043.15,-1434.77 2984.37,-927.98 3413.29,-291.81l-401.06 419.85c-46.08,-141.81 -105.28,-154.7 -204.97,-227.04 -753.32,-546.7 -1725.01,-420.71 -2330.4,390.78 -270.92,363.17 -450.3,978.79 -450.3,1598.22z"/>
  <g>
   <path class="fil2" d="M25467.53 10364.19c138.67,-812.26 633.96,-1664.16 1644.34,-1664.16 871.69,0 1267.93,792.44 1267.93,1525.46 0,118.88 -19.82,158.49 -158.49,158.49l-2753.78 -19.79zm1703.77 -2615.09c-1842.46,0 -3169.81,1624.53 -3169.81,3843.38 0,2258.48 1208.5,3605.65 3229.23,3605.65 1089.62,0 1961.31,-475.48 2218.85,-950.93l19.82 -59.42 -79.24 -614.15 -198.12 99.06c-475.48,237.73 -1069.81,376.42 -1723.59,376.42 -1545.28,0 -2100,-1347.16 -2100,-2595.27l0 -237.72 4378.31 -0.03 19.82 -138.67c19.81,-198.12 19.81,-336.78 19.81,-534.9 39.64,-1327.35 -792.44,-2793.39 -2615.08,-2793.39l0 -0.03zm46021.54 -1466.01l-713.2 0 -19.82 118.88c-198.12,772.62 -475.48,1287.74 -1327.34,1743.4l-79.24 39.64 0 693.38 832.05 -0.03 0 4516.97c0,1267.92 495.29,1802.83 1644.34,1802.83 693.38,0 1406.58,-277.36 1624.52,-653.78l19.82 -59.43 -99.06 -515.08 -178.3 59.42c-178.3,59.43 -574.54,158.49 -950.93,158.49 -495.29,0 -752.84,-178.31 -752.84,-1030.2l0 -4279.22 1961.31 0 0 -970.74 -1961.31 0 0 -1624.53zm-39285.72 5646.2c-19.82,396.24 -39.64,1188.68 -39.64,1624.52 -237.72,257.55 -673.6,515.09 -1248.1,515.09 -594.33,0 -950.93,-356.6 -950.93,-950.93 0,-812.26 633.96,-1208.5 1862.25,-1208.5l19.82 0c118.87,19.82 257.54,19.82 356.6,19.82l0 0zm1307.53 1604.71c0,-653.78 19.81,-1248.11 19.81,-1822.65 19.82,-534.9 19.82,-1069.8 19.82,-1584.89 0,-1525.46 -891.5,-2377.36 -2456.6,-2377.36 -812.26,0 -1624.53,435.84 -1981.13,851.9l-59.42 59.42 118.88 693.39 198.11 -99.06c435.85,-237.73 911.33,-356.6 1485.86,-356.6 950.93,0 1366.99,455.66 1366.99,1485.86l0 653.78c-198.12,-19.82 -435.85,-19.82 -574.54,-19.82 -1842.46,0 -3031.11,911.32 -3031.11,2298.09 0,1109.44 812.26,1882.07 1941.49,1882.07 733.02,0 1366.98,-376.42 1723.58,-752.84 138.66,475.48 534.9,752.84 1109.44,752.84 435.84,0 871.69,-99.06 1129.23,-277.36l59.42 -59.43 0 -633.96 -158.51 0c-792.45,19.82 -911.32,-138.66 -911.32,-693.38l0 0zm5626.41 -5784.9c-475.48,0 -1109.44,316.97 -1545.29,733.02l0 -871.68 -217.93 99.06c-653.78,297.17 -1149.05,455.66 -1862.25,653.78l-118.88 39.63 0 574.54 138.67 19.82c772.62,158.48 772.62,198.12 772.62,911.32l0 3407.53c0,911.32 -99.06,911.32 -316.96,950.93l-574.54 99.06 0 693.38 178.33 -0.03c99.06,0 217.94,-19.82 356.6,-19.82 297.18,-19.82 653.78,-39.63 1030.2,-39.63 396.24,0 911.32,19.81 1287.74,39.63l475.48 19.82 0 -693.38 -772.63 -99.06c-198.11,-19.82 -316.96,-39.64 -316.96,-950.93l0 -3883.01c356.6,-277.36 851.9,-455.66 1287.74,-455.66 257.54,0 554.72,59.42 673.6,99.06l198.12 99.06 158.48 -1327.35 -138.67 -39.63c-237.72,-19.82 -435.84,-59.43 -693.38,-59.43l-0.09 -0.03zm6141.49 5923.59c-376.42,257.54 -911.32,396.24 -1485.86,396.24 -1386.8,0 -2258.48,-990.56 -2258.48,-2615.09 0,-1644.34 812.26,-2793.39 1961.3,-2793.39 772.63,0 1129.23,356.61 1168.87,1188.69l19.82 158.48 832.08 -0.03 0 -158.49c0,-475.47 19.81,-1129.22 59.42,-1584.88l19.82 -118.88 -118.88 -39.64c-435.84,-158.48 -1089.62,-356.6 -1862.25,-356.6 -1882.06,0 -3427.35,1723.59 -3427.35,3843.38 0,2218.84 1248.11,3605.65 3268.87,3605.65 1030.2,0 1862.25,-495.3 2159.43,-970.75l19.81 -59.42 -138.66 -653.78 -217.94 158.51zm21217.84 -1743.4c-19.81,396.24 -39.63,1188.68 -39.63,1624.52 -237.73,257.55 -673.6,515.09 -1248.11,515.09 -594.32,0 -950.92,-356.6 -950.92,-950.93 0,-812.26 633.96,-1208.5 1862.24,-1208.5l19.82 0c99.06,19.82 237.73,19.82 356.6,19.82l0 0zm1287.75 1604.71c0,-653.78 19.81,-1248.11 19.81,-1822.65 19.82,-534.9 19.82,-1069.8 19.82,-1584.89 0,-1525.46 -891.5,-2377.36 -2456.6,-2377.36 -812.27,0 -1624.53,435.84 -1981.13,851.9l-59.42 59.42 118.88 693.39 198.11 -99.06c435.85,-237.73 911.33,-356.6 1485.86,-356.6 950.93,0 1366.99,455.66 1366.99,1485.86l0 653.78c-198.12,-19.82 -435.85,-19.82 -574.54,-19.82 -1842.46,0 -3031.11,911.32 -3031.11,2298.09 0,1109.44 812.26,1882.07 1941.49,1882.07 733.02,0 1366.98,-376.42 1723.58,-752.84 138.66,475.48 534.9,752.84 1109.44,752.84 435.84,0 871.69,-99.06 1129.23,-277.36l59.42 -59.43 0 -633.96 -158.51 0c-772.63,19.82 -911.32,-138.66 -911.32,-693.38l0 0zm-15135.81 -217.91l0 -3011.32c0,-1089.63 -237.72,-2535.85 -2218.85,-2535.85 -653.78,0 -1327.34,356.6 -1783,713.2l0 -3724.52 -237.73 118.87c-653.78,336.79 -1149.04,534.9 -1862.24,733.02l-118.88 39.64 0 574.54 138.66 19.82c772.63,158.48 772.63,198.11 772.63,911.32l0 6161.31c0,911.32 -99.06,911.32 -316.97,950.93l-574.53 99.06 0 693.38 396.23 -19.82c316.97,-19.81 733.02,-19.81 1168.87,-19.81 435.84,0 871.68,19.81 1208.5,39.63l356.6 19.82 0 -713.2 -574.54 -99.06c-198.12,-39.64 -316.97,-59.43 -316.97,-950.93l0 -3942.43c237.73,-158.48 812.27,-475.48 1426.41,-475.48 931.14,0 1267.92,396.24 1267.92,1545.28l0 2872.63c0,911.32 -99.06,911.32 -316.96,950.93l-574.54 99.06 0 693.38 396.24 -19.82c316.96,-19.81 733.02,-19.81 1168.86,-19.81 435.84,0 871.68,19.81 1208.5,39.63l356.6 19.82 0 -713.2 -574.54 -99.06c-277.36,-39.64 -396.24,-39.64 -396.24,-950.93l-0.03 -0.03zm22703.71 -2951.9c138.66,-812.26 633.96,-1664.16 1644.34,-1664.16 871.68,0 1267.92,792.44 1267.92,1525.46 0,118.88 -19.82,158.49 -158.48,158.49l-2753.78 -19.79zm1703.76 -2615.09c-1842.46,0 -3169.81,1624.53 -3169.81,3843.38 0,2258.48 1208.5,3605.65 3229.23,3605.65 1089.63,0 1961.31,-475.48 2218.85,-950.93l19.82 -59.42 -79.24 -614.15 -198.12 99.06c-475.48,237.73 -1069.8,376.42 -1723.58,376.42 -1545.28,0 -2100,-1347.16 -2100,-2595.27l0 -237.72 4417.94 -0.03 19.82 -138.67c19.81,-198.12 19.81,-336.78 19.81,-534.9 0,-1327.35 -832.08,-2793.39 -2654.72,-2793.39l0 -0.03zm-16304.66 3110.39c-673.6,0 -1188.69,-19.82 -1525.47,-39.64l-277.36 -19.82 0 693.39 653.78 118.87c217.94,39.64 435.84,99.06 435.84,950.93l0 1485.86c-435.84,217.94 -1089.62,257.54 -1466.04,257.54 -1723.58,0 -2833.02,-1485.86 -2833.02,-3764.13 0,-2258.49 1149.04,-3764.13 2852.81,-3764.13 1109.44,0 1743.4,594.32 1822.64,1664.16l19.82 138.66 851.9 0 -39.64 -158.48c-59.42,-752.84 -59.42,-1386.8 -79.24,-1981.13l0 -99.06 -99.06 -39.63c-515.08,-178.3 -1307.53,-435.84 -2456.6,-435.84 -2535.85,0 -4378.28,2000.94 -4378.28,4794.33 0,2793.38 1644.34,4596.21 4180.19,4596.21 1208.5,0 2416.97,-277.36 2872.63,-495.3l99.06 -39.63 0 -2139.61c0,-832.08 138.66,-891.51 376.42,-950.93l534.9 -99.06 0 -693.38 -376.42 19.82 -1168.86 0zm-49330.02 -495.3c138.66,-812.26 633.96,-1664.16 1644.34,-1664.16 871.69,0 1267.92,792.44 1267.92,1525.46 0,118.88 -19.82,158.49 -158.48,158.49l-2753.78 -19.79zm1703.76 -2615.09c-1842.46,0 -3169.8,1624.53 -3169.8,3843.38 0,2258.48 1208.5,3605.65 3229.23,3605.65 1089.62,0 1961.3,-475.48 2218.85,-950.93l19.81 -59.42 -79.24 -614.15 -198.12 99.06c-475.48,237.73 -1069.8,376.42 -1723.58,376.42 -1545.28,0 -2100,-1347.16 -2100,-2595.27l0 -237.72 4378.3 -0.03 19.82 -138.67c19.82,-198.12 19.82,-336.78 19.82,-534.9 39.64,-1327.35 -792.44,-2793.39 -2615.09,-2793.39l0 -0.03zm6101.86 2951.9c-832.08,-316.96 -1327.34,-554.72 -1327.34,-1149.04 0,-812.26 752.84,-911.32 1188.68,-911.32 812.26,0 1168.86,356.6 1228.28,1208.5l19.82 138.66 812.26 0 -19.81 -178.3c-39.64,-594.33 -59.43,-950.93 -19.82,-1545.28l0 -118.88 -99.06 -39.64c-435.84,-178.3 -1168.86,-376.42 -1862.25,-376.42 -1446.22,0 -2456.6,812.27 -2456.6,2000.95 0,1485.86 1149.04,1901.88 2040.55,2238.66 851.89,316.97 1366.98,534.91 1366.98,1188.69 0,673.59 -515.09,1109.44 -1287.74,1109.44 -1049.99,0 -1287.74,-455.66 -1406.59,-1406.59l-19.82 -138.67 -812.23 -0.03 19.82 178.3c39.63,653.78 59.42,1168.87 39.63,1822.65l0 118.87 118.88 39.64c673.6,217.94 1327.35,316.97 2080.19,316.97 1406.58,0 2516.02,-970.75 2516.02,-2199.07 -19.81,-1485.86 -1188.68,-1941.49 -2119.79,-2298.09l-0.06 0zm-12203.72 -2179.24c0,1030.2 -693.38,1683.95 -1783,1683.95 -376.42,0 -574.54,-19.82 -812.26,-19.82l0 -3209.41c277.36,-19.82 633.96,-19.82 950.92,-19.82 1069.81,-19.82 1644.34,534.9 1644.34,1565.1l0 0zm1584.89 5170.72c-673.6,-752.84 -1406.59,-1783.01 -1961.31,-2753.75 1049.99,-356.6 1842.47,-1406.59 1842.47,-2496.21 0,-1525.47 -1069.81,-2456.61 -2892.45,-2456.61 -435.84,0 -812.26,19.82 -1188.68,19.82 -316.97,19.82 -594.33,19.82 -871.69,19.82 -534.9,0 -1089.62,0 -1426.4,-19.82l-178.3 -19.82 0 693.39 653.78 118.87c217.93,39.64 435.84,99.06 435.84,950.93l0 5487.72c0,871.68 -198.12,911.32 -435.84,950.92l-653.78 118.88 0 693.39 316.96 -19.82c376.42,-19.82 931.14,-39.64 1485.86,-39.64 614.14,0 1426.41,19.82 1743.4,39.64l178.27 0.03 0 -693.39 -851.9 -118.87c-217.93,-39.64 -435.84,-59.43 -435.84,-950.93l0 -2119.79c237.72,19.82 475.48,19.82 812.26,19.82 851.9,1525.46 1624.53,2634.9 2040.55,3130.17 475.48,574.54 1149.05,871.68 1941.49,871.68 257.54,0 534.9,-59.42 693.39,-138.66l99.06 -39.64 0 -574.53 -158.46 0c-356.6,0 -792.44,-257.55 -1188.68,-673.6z"/>
  </g>
  <rect class="fil0" x="-18004.15" y="7.58" width="99398.84" height="23794.65"/>
 </g>
</svg>
