<?xml version="1.0" encoding="UTF-8"?>
<!DOCTYPE svg PUBLIC "-//W3C//DTD SVG 1.1//EN" "http://www.w3.org/Graphics/SVG/1.1/DTD/svg11.dtd">
<!-- Creator: CorelDRAW 2019 (64-Bit) -->
<svg xmlns="http://www.w3.org/2000/svg" xml:space="preserve" width="403.735mm" height="237.947mm" version="1.1" style="shape-rendering:geometricPrecision; text-rendering:geometricPrecision; image-rendering:optimizeQuality; fill-rule:evenodd; clip-rule:evenodd"
viewBox="0 0 40373.5 23794.7"
 xmlns:xlink="http://www.w3.org/1999/xlink"
 xmlns:dc="http://purl.org/dc/elements/1.1/"
 xmlns:cc="http://creativecommons.org/ns#"
 xmlns:rdf="http://www.w3.org/1999/02/22-rdf-syntax-ns#"
 xmlns:svg="http://www.w3.org/2000/svg"
 xmlns:sodipodi="http://sodipodi.sourceforge.net/DTD/sodipodi-0.dtd"
 xmlns:inkscape="http://www.inkscape.org/namespaces/inkscape"
 sodipodi:docname="Scopus logo.svg"
 inkscape:version="0.92.1 r15371">
 <defs>
  <style type="text/css">
   <![CDATA[
    .fil0 {fill:none}
    .fil1 {fill:#1F1B20}
   ]]>
  </style>
 </defs>
 <g id="Слой_x0020_1">
  <metadata id="CorelCorpID_0Corel-Layer"/>
  <rect class="fil0" x="-2317.39" y="1904.93" width="45000" height="20000"/>
  <sodipodi:namedview pagecolor="#ffffff" bordercolor="#666666" borderopacity="1" objecttolerance="10" gridtolerance="10" guidetolerance="10" inkscape:pageopacity="0" inkscape:pageshadow="2" inkscape:window-width="1802" inkscape:window-height="1224" id="namedview4" showgrid="false" fit-margin-top="10" fit-margin-left="10" fit-margin-right="10" fit-margin-bottom="10" inkscape:zoom="1.0225" inkscape:cx="119.80418" inkscape:cy="67.576223" inkscape:window-x="0" inkscape:window-y="31" inkscape:window-maximized="0" inkscape:current-layer="svg2"/>
  <path id="path4487" class="fil1" d="M20793.38 17897.11c-24.18,-62.97 -47.44,-2289.87 -51.73,-4948.66l-7.78 -4834.17 501.04 0c552.76,0 589.96,28.13 665.99,503.91 24.6,153.97 79.78,279.94 122.6,279.94 42.82,0 251.27,-151.81 463.21,-337.37 537.32,-470.45 1014.52,-634.54 1825.16,-627.42 731.34,6.37 979.11,77.19 1459.75,417.18 686.76,485.77 1031.04,1422.3 1038.32,2824.49 9.57,1844.06 -652.8,3112.13 -1940.39,3714.67 -413.77,193.63 -618.6,240.45 -1166.54,266.66 -409.9,19.6 -825.21,-6.7 -1083.76,-68.62 -230.5,-55.22 -452.72,-101.54 -493.79,-102.91 -46.16,-1.58 -88.89,567.16 -111.99,1490.5l-37.33 1493.04 -569.41 21.64c-456.63,17.35 -578.1,-1 -613.35,-92.84l0 -0.04zm3302.14 -3882.46c493.71,-174.19 808.15,-464.08 1061.38,-978.43 308.27,-626.17 421.13,-1451.14 311.81,-2279.18 -164.71,-1247.64 -711.48,-1843.6 -1609.48,-1754.38 -237.11,23.55 -525.17,91.47 -640.11,150.89 -764.41,249.36 -1245.18,878.15 -1169.78,1257.88 -22.43,91.47 -31.29,888.3 -19.68,1770.73l21.1 1604.41 410.56 166.29c486.06,196.83 1177.28,222.97 1634.16,61.79l0.04 0zm-23070.75 1039.49c-804.62,-179.69 -1034.29,-300.08 -1029.09,-539.49 6.45,-295.17 113.4,-906.94 168.17,-961.71 25.72,-25.72 224.17,29.92 440.98,123.64 846.48,365.91 1805.07,477.36 2484.22,288.84 447.52,-124.26 906.23,-617.55 970.07,-1043.35 98.29,-655.34 -297.92,-1170.86 -1399.7,-1821.17 -2048.8,-1209.36 -2591.24,-1835.24 -2592.83,-2991.99 -0.91,-759.42 165.51,-1179.64 666.17,-1680.81 646.31,-646.97 1042.35,-775.48 2393.82,-776.48 920.01,-0.66 1163.66,24.72 1623.67,169.29 297.67,93.55 545.11,211.15 549.81,261.3 18.81,199.62 -25.68,1065.07 -57.39,1116.97 -18.6,30.42 -158.01,1.2 -309.77,-64.96 -978.48,-426.55 -2050.09,-541.16 -2684.84,-287.18 -602.41,241.03 -938.36,895.41 -764,1488.29 123.22,418.98 769.49,1026.05 1647.43,1547.52 1753.17,1041.31 2309.77,1689.75 2326.75,2710.59 11.81,712.44 -188.6,1192.21 -720.02,1723.54 -642.44,642.32 -1059.87,793.01 -2283.5,824.3 -633.66,16.23 -1092.59,-11.74 -1429.95,-87.06l0 -0.08zm7691 1.79c-1021.1,-325.88 -1772.65,-1270.07 -2010.89,-2526.2 -106.2,-560.05 -83.15,-1682.18 44.65,-2172.81 257.88,-990.01 899.08,-1799.74 1735.69,-2191.87 362.34,-169.83 547.56,-203.87 1225.25,-225.22 947.02,-29.84 1494.21,99.04 1887.84,444.65 281.31,246.98 440.2,644.56 399.79,1000.24 -25.01,219.98 -31.25,222.89 -528.79,244.65l-503.5 22.06 -124.22 -260.55c-167.83,-351.97 -416.6,-439.07 -1163.2,-407.24 -703.07,29.97 -905.74,138.45 -1272.32,681.23 -339.32,502.41 -446.31,1003.53 -416.27,1949.51 24.26,763.37 46.99,874.52 272.45,1332.53 494.13,1003.74 1379.31,1380.93 2483.92,1058.51 223.01,-65.09 551.6,-202.83 730.17,-306.12 178.57,-103.25 351.97,-159.18 385.31,-124.26 33.33,34.91 71.99,263 85.89,506.86 24.63,432 18.77,447.81 -229.42,616.56 -421.18,286.43 -954.26,414.85 -1835.57,442.28 -580.31,18.02 -922.55,-6.83 -1166.78,-84.77l0 -0.04zm6152.51 4.62c-1005.98,-314.4 -1779.34,-1169.32 -2080.26,-2299.65 -145.9,-547.98 -137.78,-1936.94 14.32,-2449.51 299.79,-1010.4 810.48,-1648.09 1653.67,-2064.82 771.74,-381.52 2168.98,-445.44 2945.34,-81.52 784.35,367.62 1383.6,1077.77 1669.94,1979.01 178.78,562.71 218.85,1829.08 76.91,2431.32 -302.91,1285.09 -1128.75,2174.35 -2311.81,2489.33 -481.27,128.13 -1552,125.88 -1968.11,-4.16zm2031.58 -1130.25c602.57,-310.94 1038.44,-1341.06 1023.67,-2419.37 -12.69,-929.67 -226.88,-1561.83 -683.93,-2018.88 -401.08,-401.08 -710.07,-518.23 -1368.62,-518.85 -970.15,-0.96 -1504.15,508.82 -1818.96,1736.4 -141.32,550.93 -104,1443.48 86.26,2062.82 145.9,475.03 739.08,1119.93 1156.55,1257.51 406.41,133.91 1254.51,81.27 1605.03,-99.59l0 -0.04zm12588.13 1111.35c-446.02,-157.63 -856.63,-588.26 -1026.79,-1076.89 -126.51,-363.3 -139.62,-656.55 -139.62,-3125.7l-0.04 -2724.78 569.08 -21.64c538.53,-20.48 571.53,-12.44 614.85,149.31 25.18,94.01 46.44,1212.31 47.23,2485.13 0.88,1391.12 32.88,2427.45 80.28,2598.11 43.36,156.18 171.91,388.09 285.64,515.39 172.7,193.3 274.82,237.08 619.39,265.67 678.89,56.3 1178.02,-132 1587.34,-598.96 645.64,-736.49 637.99,-697.91 637.99,-3214.38l0 -2215.96 555.46 0c305.54,0 571.91,26.55 591.93,59.01 20.06,32.46 44.07,1586.13 53.39,3452.66l16.98 3393.65 -428.55 22.6c-507.86,26.76 -624.42,-48.57 -687.72,-444.53 -63.79,-398.87 -153.05,-423.96 -408.07,-114.56 -119.97,145.57 -424.59,367.83 -676.9,493.88 -424.84,212.27 -514.47,228.79 -1212.01,223.34 -474.66,-3.7 -874.07,-48.56 -1079.86,-121.3l0 -0.05zm7157.26 20.98c-492.13,-136.04 -884.89,-338.74 -929.17,-479.52 -43.15,-137.12 60.01,-884.18 132.05,-956.22 25.21,-25.22 296.54,78.03 602.95,229.42 931.45,460.26 1967.15,446.9 2445.55,-31.46 173.32,-173.32 212.15,-276.82 212.15,-565.37 0,-312.15 -33.13,-384.73 -284.94,-624.26 -156.72,-149.06 -616.22,-432.25 -1021.13,-629.25 -982.93,-478.27 -1530.41,-860.63 -1793.99,-1252.97 -182.82,-272.11 -222.23,-414.77 -244.2,-884.34 -22.43,-478.78 -0.21,-608.57 153.02,-895.84 227.63,-426.67 696.66,-786.26 1226.5,-940.27 627.63,-182.44 1929.91,-118.73 2524.66,123.51l447.89 182.44 19.31 447.81c29.01,672.36 -25.67,710.36 -601.57,418.06 -559.68,-284.06 -1463.33,-394.13 -1941.23,-236.42 -332.75,109.82 -649.39,470.25 -648.73,738.45 1.13,460.55 344.94,752.22 1607.32,1363.54 1372.52,664.7 1915.17,1358.08 1803.15,2303.98 -88.31,745.68 -588.18,1351.26 -1351.1,1636.69 -340.57,127.42 -579.23,157.01 -1222.83,151.64 -439.83,-3.66 -950.89,-48.48 -1135.66,-99.54l0 -0.08z" inkscape:connector-curvature="0"/>
  <rect class="fil0" x="-4.33" y="6.75" width="40359.16" height="23794.65"/>
 </g>
</svg>
