<?xml version="1.0" encoding="UTF-8"?>
<!DOCTYPE svg PUBLIC "-//W3C//DTD SVG 1.1//EN" "http://www.w3.org/Graphics/SVG/1.1/DTD/svg11.dtd">
<!-- Creator: CorelDRAW 2019 (64-Bit) -->
<svg xmlns="http://www.w3.org/2000/svg" xml:space="preserve" width="200mm" height="200mm" version="1.1" style="shape-rendering:geometricPrecision; text-rendering:geometricPrecision; image-rendering:optimizeQuality; fill-rule:evenodd; clip-rule:evenodd"
viewBox="0 0 20000 20000"
 xmlns:xlink="http://www.w3.org/1999/xlink">
 <defs>
  <style type="text/css">
   <![CDATA[
    .fil0 {fill:none}
    .fil1 {fill:black}
    .fil2 {fill:#B2B2B2}
    .fil3 {fill:#C1C1C1}
   ]]>
  </style>
 </defs>
 <g id="Слой_x0020_1">
  <metadata id="CorelCorpID_0Corel-Layer"/>
  <rect class="fil0" x="-7.61" y="7.58" width="20000" height="20000"/>
  <g id="_2657341548432">
   <path class="fil1" d="M12808.73 9579.03c1296.98,302.16 2265.3,1124.59 2265.3,2571.43 0,726.16 -89.53,1200 -409.03,1754.23 -235.52,408.57 -545.94,717.28 -926.07,992.29 -767.81,555.48 -1761.28,784.09 -3073.06,784.09l-4510.2 0 0 -11142.86 4469.38 0c1090.32,0 1925.43,118.78 2611.33,531.53 1021.82,614.9 1318.58,1852.41 968.03,2904.98 -203.71,611.68 -669.91,1204.7 -1271,1463.69 -94.66,40.78 -121.98,19.07 -124.68,140.62zm-12816.33 -5877.55l0 12612.24c0,863.31 416.88,1671.07 906.48,2297.6l220.56 248.83c46.11,46.11 72.08,51.73 123.37,101.12 614.2,591.44 1609.62,1046.33 2423.06,1046.33l12632.65 0c845.82,0 1835.89,-458.9 2423.07,-1025.92 53.83,-51.98 82.17,-59.31 133.88,-111.01l212.56 -236.42c496.28,-590.03 924.37,-1503.98 924.37,-2320.53l0 -12612.24c0,-847.18 -421.41,-1695.84 -915.29,-2309.21l-722.96 -664.78c-492.54,-368.42 -1373.25,-719.89 -2055.63,-719.89l-12632.65 0c-243.84,0 -586.39,70.96 -789.05,129.32 -600.67,172.97 -1165.05,463.45 -1613.61,896.6 -53.83,51.98 -82.17,59.31 -133.88,111.01l-212.56 236.42c-74.98,89.14 -134.39,171.2 -204.48,264.9 -368.15,492.18 -719.89,1373.71 -719.89,2055.63z"/>
   <path class="fil1" d="M8954.74 13640.25c1054.31,0 2850.78,242.72 3192.72,-967.39 154,-544.99 73.4,-1168.29 -408.26,-1534.51 -409.77,-311.55 -1282.8,-349.22 -1787.62,-287.6l-1001.67 -3.47 4.83 2792.97z"/>
   <path class="fil1" d="M9931.18 8918.44c399.57,57.22 859.79,-58.61 1077.96,-200.22l195.74 -151.2c2.96,-2.98 7.13,-7.35 10.03,-10.38 413.89,-431.8 357.67,-1260.43 7.27,-1656.37 -160.99,-181.91 -606.52,-368.61 -984.88,-313.6l-1285.69 -15.31 -0.03 2355.52 979.6 -8.44z"/>
   <path class="fil2" d="M9931.18 8918.44l-979.6 8.44 0.03 -2355.52 1285.69 15.31c-28.81,-25.12 -4.81,-21.35 -60.35,-29.26l-1245.77 1.21 0 2387.76 939.65 1.2c55.17,-8.88 31.32,-3.93 60.35,-29.14z"/>
   <path class="fil3" d="M8954.74 13640.25l-4.83 -2792.97 1001.67 3.47c-33.14,-27.64 12.29,-13.29 -42.19,-25.01l-978.21 -1.81 -0.14 2653.17c-0.83,79.75 -12.78,113.36 23.7,163.15z"/>
  </g>
 </g>
</svg>
