<?xml version="1.0" encoding="UTF-8"?>
<!DOCTYPE svg PUBLIC "-//W3C//DTD SVG 1.1//EN" "http://www.w3.org/Graphics/SVG/1.1/DTD/svg11.dtd">
<!-- Creator: CorelDRAW 2019 (64-Bit) -->
<svg xmlns="http://www.w3.org/2000/svg" xml:space="preserve" width="200mm" height="200mm" version="1.1" style="shape-rendering:geometricPrecision; text-rendering:geometricPrecision; image-rendering:optimizeQuality; fill-rule:evenodd; clip-rule:evenodd"
viewBox="0 0 20000 20000"
 xmlns:xlink="http://www.w3.org/1999/xlink">
 <defs>
  <style type="text/css">
   <![CDATA[
    .fil1 {fill:none}
    .fil0 {fill:black}
   ]]>
  </style>
 </defs>
 <g id="Слой_x0020_1">
  <metadata id="CorelCorpID_0Corel-Layer"/>
  <g id="_2657337641392">
   <path class="fil0" d="M5747.5 12840.18l1163.26 0 0 4570.82 20.41 0 0 64.38 20.42 0 0 42.92 20.4 0 0 42.92 20.41 0 0 21.46 20.4 0 0 21.46 40.83 0 0 21.45 61.21 0 0 21.47 244.91 0 0 -21.47 61.22 0 0 -21.45 61.23 0 0 -21.46 40.81 0 0 -21.46 40.82 0 0 -21.45 40.81 0 0 -21.47 20.41 0 0 -21.46 40.82 0 0 -21.46 40.82 0 0 -21.45 20.4 0 0 -21.46 40.82 0 0 -4592.29 1142.86 0 0 5622.33 -1061.23 0 0 -64.38 -20.41 0 0 -107.3 -20.4 0 0 -107.3 -20.41 0 0 -107.29 -20.41 0 0 -107.3 -40.82 0 0 21.47 -20.4 0 0 21.46 -20.41 0 0 21.45 -40.82 0 0 21.46 -20.41 0 0 21.46 -20.41 0 0 21.46 -20.4 0 0 21.46 -40.83 0 0 21.46 -20.4 0 0 21.46 -40.81 0 0 21.45 -20.41 0 0 21.47 -20.42 0 0 21.46 -40.81 0 0 21.45 -20.4 0 0 21.46 -40.83 0 0 21.46 -20.4 0 0 21.47 -40.82 0 0 21.45 -20.4 0 0 21.46 -40.82 0 0 21.46 -40.82 0 0 21.46 -40.82 0 0 21.46 -40.81 0 0 21.46 -40.81 0 0 21.46 -61.23 0 0 21.45 -61.23 0 0 21.46 -81.63 0 0 21.47 -183.67 0 0 21.46 -20.41 0 0 -21.46 -183.67 0 0 -21.47 -102.04 0 0 -21.46 -61.23 0 0 -21.45 -40.82 0 0 -21.46 -61.22 0 0 -21.46 -40.82 0 0 -21.46 -20.4 0 0 -21.46 -40.83 0 0 -21.46 -40.81 0 0 -21.46 -20.4 0 0 -21.45 -20.41 0 0 -21.47 -20.42 0 0 -21.46 -20.4 0 0 -21.46 -20.41 0 0 -21.45 -20.4 0 0 -21.46 -20.41 0 0 -42.92 -20.42 0 0 -21.46 -20.4 0 0 -42.92 -20.41 0 0 -42.92 -20.41 0 0 -64.37 -20.4 0 0 -64.38 -20.42 0 0 -107.3 -20.4 0 0 -214.59 -20.41 0 0 -4763.96zm14244.9 -85.82l0 3991.41 -20.41 0 0 150.22 -20.4 0 0 128.75 -20.41 0 0 107.3 -20.4 0 0 85.84 -20.42 0 0 85.82 -20.41 0 0 85.84 -20.4 0 0 64.39 -20.41 0 0 64.37 -20.4 0 0 64.38 -20.42 0 0 42.91 -20.41 0 0 64.39 -20.4 0 0 64.38 -20.41 0 0 42.91 -20.41 0 0 42.92 -20.41 0 0 42.92 -20.41 0 0 42.92 -20.4 0 0 42.91 -20.41 0 0 42.93 -20.41 0 0 42.91 -20.4 0 0 42.92 -20.42 0 0 42.92 -20.41 0 0 42.91 -20.4 0 0 21.47 -20.41 0 0 42.91 -20.4 0 0 42.92 -20.42 0 0 21.47 -20.41 0 0 42.91 -20.4 0 0 21.46 -20.41 0 0 42.92 -20.41 0 0 21.46 -20.41 0 0 42.91 -20.41 0 0 21.46 -20.4 0 0 21.47 -20.41 0 0 42.91 -20.41 0 0 21.46 -20.41 0 0 21.46 -20.41 0 0 21.47 -20.41 0 0 42.91 -20.4 0 0 21.46 -20.41 0 0 21.45 -20.41 0 0 21.47 -20.41 0 0 21.46 -20.41 0 0 21.46 -20.4 0 0 42.91 -20.41 0 0 21.47 -20.42 0 0 21.46 -20.4 0 0 21.45 -20.41 0 0 21.46 -20.4 0 0 21.46 -20.41 0 0 21.47 -20.42 0 0 21.45 -20.4 0 0 21.46 -20.41 0 0 21.46 -20.4 0 0 21.45 -20.41 0 0 21.47 -40.82 0 0 21.46 -20.41 0 0 21.46 -20.41 0 0 21.45 -20.4 0 0 21.46 -20.42 0 0 21.47 -40.81 0 0 21.46 -20.41 0 0 21.45 -20.4 0 0 21.46 -20.42 0 0 21.46 -40.81 0 0 21.45 -20.41 0 0 21.47 -20.4 0 0 21.46 -40.83 0 0 21.46 -20.4 0 0 21.45 -40.81 0 0 21.46 -20.42 0 0 21.47 -40.81 0 0 21.45 -20.41 0 0 21.46 -40.81 0 0 21.46 -20.42 0 0 21.46 -40.81 0 0 21.46 -40.81 0 0 21.46 -40.83 0 0 21.46 -40.81 0 0 21.46 -20.4 0 0 21.45 -40.83 0 0 21.47 -40.81 0 0 21.46 -40.82 0 0 21.45 -61.22 0 0 21.46 -40.82 0 0 21.46 -40.81 0 0 21.47 -61.23 0 0 21.45 -40.82 0 0 21.46 -61.22 0 0 21.46 -61.22 0 0 21.45 -61.23 0 0 21.47 -61.22 0 0 21.46 -81.63 0 0 21.46 -61.23 0 0 21.45 -102.04 0 0 21.46 -81.64 0 0 21.47 -122.45 0 0 21.46 -142.85 0 0 21.45 -285.72 0 0 21.46 -13306.12 0 0 -21.46 -285.72 0 0 -21.45 -142.85 0 0 -21.46 -102.04 0 0 -21.47 -102.05 0 0 -21.46 -102.04 0 0 -21.45 -61.23 0 0 -21.46 -81.63 0 0 -21.46 -61.22 0 0 -21.47 -61.23 0 0 -21.45 -61.22 0 0 -21.46 -61.22 0 0 -21.46 -40.82 0 0 -21.45 -61.23 0 0 -21.47 -40.81 0 0 -21.46 -40.82 0 0 -21.46 -40.81 0 0 -21.45 -61.23 0 0 -21.46 -40.81 0 0 -21.47 -20.41 0 0 -21.45 -40.82 0 0 -21.46 -40.81 0 0 -21.46 -40.83 0 0 -21.46 -40.81 0 0 -21.46 -20.41 0 0 -21.46 -40.82 0 0 -21.46 -40.81 0 0 -21.46 -20.41 0 0 -21.45 -40.81 0 0 -21.47 -20.42 0 0 -21.46 -40.81 0 0 -21.45 -20.4 0 0 -21.46 -40.83 0 0 -21.46 -20.4 0 0 -21.47 -20.41 0 0 -21.45 -40.81 0 0 -21.46 -20.42 0 0 -21.46 -20.4 0 0 -21.45 -20.41 0 0 -21.46 -40.81 0 0 -21.47 -20.42 0 0 -21.46 -20.4 0 0 -21.45 -20.41 0 0 -21.46 -20.41 0 0 -21.46 -40.82 0 0 -21.47 -20.41 0 0 -21.45 -20.4 0 0 -21.46 -20.41 0 0 -21.46 -20.4 0 0 -21.45 -20.42 0 0 -21.47 -20.41 0 0 -21.46 -20.4 0 0 -21.46 -20.41 0 0 -21.45 -20.4 0 0 -21.46 -20.42 0 0 -21.47 -20.41 0 0 -42.91 -20.4 0 0 -21.46 -20.41 0 0 -21.46 -20.41 0 0 -21.47 -20.41 0 0 -21.45 -20.41 0 0 -21.46 -20.4 0 0 -42.91 -20.41 0 0 -21.47 -20.41 0 0 -21.46 -20.41 0 0 -21.46 -20.41 0 0 -42.91 -20.41 0 0 -21.47 -20.4 0 0 -21.46 -20.41 0 0 -42.91 -20.41 0 0 -21.46 -20.41 0 0 -42.92 -20.41 0 0 -21.46 -20.4 0 0 -42.91 -20.41 0 0 -21.47 -20.42 0 0 -42.92 -20.4 0 0 -42.91 -20.41 0 0 -21.47 -20.4 0 0 -42.91 -20.41 0 0 -42.92 -20.42 0 0 -42.92 -20.4 0 0 -42.91 -20.41 0 0 -42.93 -20.41 0 0 -21.46 -20.4 0 0 -64.37 -20.41 0 0 -42.92 -20.41 0 0 -42.92 -20.41 0 0 -42.91 -20.41 0 0 -64.38 -20.4 0 0 -42.92 -20.41 0 0 -64.38 -20.42 0 0 -64.38 -20.4 0 0 -64.37 -20.41 0 0 -64.39 -20.4 0 0 -85.84 -20.41 0 0 -85.82 -20.42 0 0 -85.84 -20.4 0 0 -107.3 -20.41 0 0 -128.75 -20.4 0 0 -150.22 -20.41 0 0 -3991.41 20.41 0 0 -171.68 20.4 0 0 -128.76 20.41 0 0 -107.29 20.4 0 0 -85.84 20.42 0 0 -85.84 20.41 0 0 -64.37 20.4 0 0 -85.84 20.41 0 0 -64.38 20.4 0 0 -64.37 20.42 0 0 -42.93 20.41 0 0 -64.37 20.4 0 0 -42.93 20.41 0 0 -64.37 20.41 0 0 -42.92 20.41 0 0 -42.92 20.41 0 0 -42.91 20.4 0 0 -42.93 20.41 0 0 -42.91 20.41 0 0 -42.93 20.4 0 0 -42.91 20.42 0 0 -42.91 20.41 0 0 -42.93 20.4 0 0 -21.46 20.41 0 0 -42.91 20.4 0 0 -42.93 20.42 0 0 -21.45 20.41 0 0 -42.92 20.4 0 0 -21.46 20.41 0 0 -42.92 20.41 0 0 -21.46 20.41 0 0 -21.45 20.41 0 0 -42.93 20.4 0 0 -21.46 20.41 0 0 -42.91 20.41 0 0 -21.46 20.41 0 0 -21.46 20.41 0 0 -21.46 20.41 0 0 -42.92 20.4 0 0 -21.45 20.41 0 0 -21.47 20.41 0 0 -21.46 20.41 0 0 -21.45 20.41 0 0 -21.46 20.4 0 0 -21.46 20.41 0 0 -42.92 20.42 0 0 -21.46 20.4 0 0 -21.46 20.41 0 0 -21.46 20.4 0 0 -21.46 20.41 0 0 -21.46 20.42 0 0 -21.46 20.4 0 0 -21.45 20.41 0 0 -21.46 40.81 0 0 -21.47 20.42 0 0 -21.46 20.4 0 0 -21.45 20.41 0 0 -21.46 20.41 0 0 -21.46 20.4 0 0 -21.47 20.42 0 0 -21.45 40.81 0 0 -21.46 20.41 0 0 -21.46 20.4 0 0 -21.45 20.42 0 0 -21.47 40.81 0 0 -21.46 20.41 0 0 -21.46 20.4 0 0 -21.45 40.83 0 0 -21.46 20.4 0 0 -21.47 40.81 0 0 -21.46 20.42 0 0 -21.45 40.81 0 0 -21.46 20.41 0 0 -21.46 40.81 0 0 -21.47 40.82 0 0 -21.45 20.41 0 0 -21.46 40.81 0 0 -21.46 40.83 0 0 -21.45 40.81 0 0 -21.47 40.82 0 0 -21.46 40.81 0 0 -21.46 20.41 0 0 -21.45 61.23 0 0 -21.46 40.81 0 0 -21.47 40.82 0 0 -21.45 40.81 0 0 -21.46 61.23 0 0 -21.46 40.82 0 0 -21.46 61.22 0 0 -21.45 61.22 0 0 -21.47 61.23 0 0 -21.46 61.22 0 0 -21.46 81.63 0 0 -21.45 61.23 0 0 -21.46 102.04 0 0 -21.47 81.64 0 0 -21.45 122.45 0 0 -21.46 142.85 0 0 -21.46 265.31 0 0 -21.46 13346.94 0 0 21.46 265.31 0 0 21.46 142.85 0 0 21.46 122.45 0 0 21.45 81.64 0 0 21.47 102.04 0 0 21.46 61.23 0 0 21.45 81.63 0 0 21.46 61.22 0 0 21.46 61.23 0 0 21.47 61.22 0 0 21.45 61.22 0 0 21.46 40.82 0 0 21.46 61.23 0 0 21.46 40.81 0 0 21.45 40.82 0 0 21.47 40.81 0 0 21.46 61.23 0 0 21.45 40.81 0 0 21.46 20.41 0 0 21.46 40.82 0 0 21.47 40.81 0 0 21.45 40.83 0 0 21.46 40.81 0 0 21.46 20.41 0 0 21.45 40.82 0 0 21.47 40.81 0 0 21.46 20.41 0 0 21.46 40.81 0 0 21.45 20.42 0 0 21.46 40.81 0 0 21.47 20.4 0 0 21.46 40.83 0 0 21.45 20.4 0 0 21.46 20.41 0 0 21.46 40.81 0 0 21.47 20.42 0 0 21.45 20.4 0 0 21.46 20.41 0 0 21.46 40.81 0 0 21.45 20.42 0 0 21.47 20.4 0 0 21.46 20.41 0 0 21.46 20.41 0 0 21.45 20.4 0 0 21.46 20.42 0 0 21.47 40.81 0 0 21.46 20.41 0 0 21.45 20.4 0 0 21.46 20.42 0 0 21.46 20.41 0 0 21.46 20.4 0 0 21.46 20.41 0 0 21.46 20.4 0 0 21.46 20.42 0 0 42.92 20.41 0 0 21.46 20.4 0 0 21.46 20.41 0 0 21.45 20.41 0 0 21.46 20.41 0 0 21.47 20.41 0 0 21.45 20.4 0 0 42.92 20.41 0 0 21.46 20.41 0 0 21.46 20.41 0 0 21.46 20.41 0 0 42.91 20.41 0 0 21.46 20.4 0 0 42.93 20.41 0 0 21.45 20.41 0 0 21.46 20.41 0 0 42.92 20.41 0 0 21.46 20.4 0 0 42.92 20.41 0 0 21.45 20.42 0 0 42.93 20.4 0 0 42.91 20.41 0 0 21.46 20.4 0 0 42.93 20.41 0 0 42.91 20.42 0 0 42.91 20.4 0 0 42.93 20.41 0 0 42.91 20.41 0 0 42.93 20.4 0 0 42.91 20.41 0 0 42.92 20.41 0 0 42.92 20.41 0 0 64.37 20.41 0 0 42.93 20.4 0 0 64.37 20.41 0 0 42.93 20.42 0 0 64.37 20.4 0 0 64.38 20.41 0 0 85.84 20.4 0 0 64.37 20.41 0 0 85.84 20.42 0 0 85.84 20.4 0 0 107.29 20.41 0 0 128.76 20.4 0 0 171.68 20.41 0zm-6632.66 4978.53l-20.4 0 0 128.75 -20.41 0 0 85.84 -20.4 0 0 64.39 -20.41 0 0 42.91 -20.42 0 0 42.92 -20.4 0 0 42.92 -20.41 0 0 21.46 -20.41 0 0 42.92 -20.4 0 0 21.46 -20.41 0 0 21.45 -20.41 0 0 21.46 -20.41 0 0 21.46 -20.41 0 0 21.47 -20.4 0 0 21.45 -20.41 0 0 21.46 -40.82 0 0 21.46 -20.41 0 0 21.46 -40.81 0 0 21.46 -40.82 0 0 21.46 -40.81 0 0 21.46 -61.23 0 0 21.45 -61.22 0 0 21.46 -102.04 0 0 21.47 -367.36 0 0 -21.47 -81.63 0 0 -21.46 -61.22 0 0 -21.45 -40.82 0 0 -21.46 -61.22 0 0 -21.46 -40.82 0 0 -21.46 -40.81 0 0 -21.46 -40.83 0 0 -21.46 -20.4 0 0 -21.46 -40.82 0 0 -21.45 -20.4 0 0 -21.47 -40.82 0 0 -21.46 -20.41 0 0 -21.46 -40.81 0 0 -21.45 -20.41 0 0 -21.46 -20.42 0 0 -21.47 -40.81 0 0 -21.45 -20.4 0 0 -21.46 -20.41 0 0 -21.46 -20.42 0 0 -21.46 -40.81 0 0 -21.46 -20.4 0 0 -21.46 -20.41 0 0 -21.46 -20.42 0 0 -21.45 -20.4 0 0 -21.46 -20.41 0 0 -21.47 -20.41 0 0 -21.46 -20.4 0 0 -21.45 -40.82 0 0 536.48 -1163.27 0 0 -7553.65 1163.27 0 0 2467.81 20.4 0 0 -21.46 20.42 0 0 -21.46 20.4 0 0 -21.46 40.82 0 0 -21.45 20.4 0 0 -21.47 20.42 0 0 -21.46 20.41 0 0 -21.45 20.4 0 0 -21.46 20.41 0 0 -21.46 40.82 0 0 -21.47 20.41 0 0 -21.45 20.4 0 0 -21.46 40.81 0 0 -21.46 20.42 0 0 -21.46 20.41 0 0 -21.46 40.81 0 0 -21.46 20.41 0 0 -21.46 40.82 0 0 -21.45 20.4 0 0 -21.46 40.82 0 0 -21.47 40.82 0 0 -21.46 40.81 0 0 -21.45 20.41 0 0 -21.46 61.23 0 0 -21.46 40.81 0 0 -21.47 61.23 0 0 -21.45 61.22 0 0 -21.46 81.63 0 0 -21.46 367.35 0 0 21.46 81.64 0 0 21.46 61.22 0 0 21.45 61.23 0 0 21.47 40.81 0 0 21.46 40.82 0 0 21.46 40.81 0 0 21.45 20.41 0 0 21.46 40.82 0 0 21.47 20.41 0 0 21.46 20.4 0 0 21.45 40.82 0 0 42.92 20.41 0 0 21.46 20.41 0 0 21.46 20.4 0 0 21.46 20.41 0 0 42.91 20.41 0 0 42.93 20.4 0 0 21.46 20.42 0 0 64.38 20.41 0 0 64.37 20.4 0 0 85.84 20.41 0 0 128.75 20.4 0 0 515.03 20.42 0 0 3133.05 -20.42 0 0 515.01zm2408.18 -557.94l20.4 0 0 150.22 20.41 0 0 85.83 20.4 0 0 42.93 20.41 0 0 42.91 20.42 0 0 21.46 20.4 0 0 21.47 20.41 0 0 21.45 20.41 0 0 21.46 40.82 0 0 21.46 40.81 0 0 21.45 61.23 0 0 21.47 265.3 0 0 -21.47 61.23 0 0 -21.45 40.81 0 0 -21.46 40.82 0 0 -21.46 20.41 0 0 -21.45 20.41 0 0 -21.47 20.4 0 0 -21.46 20.41 0 0 -21.46 20.41 0 0 -21.45 20.41 0 0 -64.39 20.41 0 0 -64.37 20.4 0 0 -214.59 20.41 0 0 -600.86 1142.86 0 0 300.43 20.41 0 0 386.26 -20.41 0 0 150.22 -20.41 0 0 107.3 -20.41 0 0 85.84 -20.4 0 0 64.37 -20.41 0 0 64.38 -20.41 0 0 42.91 -20.41 0 0 42.93 -20.41 0 0 42.91 -20.4 0 0 42.92 -20.41 0 0 42.92 -20.42 0 0 21.46 -20.4 0 0 42.91 -20.41 0 0 21.46 -20.4 0 0 21.47 -20.41 0 0 21.46 -20.42 0 0 42.91 -20.4 0 0 21.46 -20.41 0 0 21.46 -20.4 0 0 21.46 -20.41 0 0 21.46 -40.82 0 0 21.46 -20.41 0 0 21.45 -20.41 0 0 21.47 -20.4 0 0 21.46 -40.82 0 0 21.45 -20.41 0 0 21.46 -40.81 0 0 21.46 -40.83 0 0 21.47 -20.4 0 0 21.45 -40.81 0 0 21.46 -61.23 0 0 21.46 -40.82 0 0 21.46 -40.82 0 0 21.46 -61.22 0 0 21.46 -81.63 0 0 21.46 -81.64 0 0 21.45 -102.04 0 0 21.46 -122.44 0 0 21.47 -632.66 0 0 -21.47 -142.85 0 0 -21.46 -81.63 0 0 -21.45 -81.64 0 0 -21.46 -61.23 0 0 -21.46 -61.22 0 0 -21.46 -40.82 0 0 -21.46 -40.81 0 0 -21.46 -61.23 0 0 -21.46 -20.41 0 0 -21.45 -40.81 0 0 -21.47 -40.82 0 0 -21.46 -20.41 0 0 -21.46 -40.81 0 0 -21.45 -20.41 0 0 -21.46 -20.41 0 0 -21.47 -40.81 0 0 -21.45 -20.41 0 0 -21.46 -20.41 0 0 -21.46 -20.41 0 0 -21.46 -20.41 0 0 -21.46 -20.41 0 0 -21.46 -20.4 0 0 -21.46 -20.41 0 0 -42.91 -20.41 0 0 -21.47 -20.41 0 0 -21.46 -20.41 0 0 -42.91 -20.4 0 0 -21.46 -20.41 0 0 -42.92 -20.42 0 0 -42.92 -20.4 0 0 -42.91 -20.41 0 0 -42.93 -20.4 0 0 -42.91 -20.41 0 0 -64.38 -20.42 0 0 -64.37 -20.4 0 0 -85.84 -20.41 0 0 -85.84 -20.4 0 0 -150.21 -20.41 0 0 -3175.98 20.41 0 0 -128.75 20.4 0 0 -107.3 20.41 0 0 -85.83 20.4 0 0 -64.38 20.42 0 0 -42.91 20.41 0 0 -64.39 20.4 0 0 -42.91 20.41 0 0 -42.93 20.4 0 0 -42.91 20.42 0 0 -21.46 20.41 0 0 -42.92 20.4 0 0 -21.46 20.41 0 0 -42.91 20.41 0 0 -21.47 20.41 0 0 -21.46 20.41 0 0 -21.45 20.4 0 0 -21.46 20.41 0 0 -21.46 20.41 0 0 -21.47 20.41 0 0 -21.45 20.41 0 0 -21.46 20.41 0 0 -21.46 20.4 0 0 -21.46 40.82 0 0 -21.46 20.41 0 0 -21.46 40.81 0 0 -21.46 40.83 0 0 -21.45 20.4 0 0 -21.46 40.81 0 0 -21.47 40.83 0 0 -21.46 61.21 0 0 -21.45 40.83 0 0 -21.46 61.22 0 0 -21.46 81.63 0 0 -21.47 81.64 0 0 -21.45 102.04 0 0 -21.46 142.85 0 0 -21.46 632.65 0 0 21.46 142.87 0 0 21.46 81.62 0 0 21.45 81.63 0 0 21.47 61.23 0 0 21.46 61.22 0 0 21.46 61.23 0 0 21.45 40.81 0 0 21.46 40.83 0 0 21.47 40.81 0 0 21.46 40.81 0 0 21.45 40.82 0 0 21.46 20.41 0 0 21.46 40.81 0 0 21.46 20.42 0 0 21.46 20.4 0 0 21.46 40.82 0 0 21.46 20.4 0 0 21.45 20.42 0 0 21.47 20.41 0 0 21.46 20.4 0 0 21.46 20.41 0 0 21.45 20.4 0 0 21.46 20.42 0 0 21.47 20.41 0 0 42.91 20.4 0 0 21.46 20.41 0 0 21.46 20.4 0 0 42.92 20.42 0 0 21.46 20.41 0 0 42.91 20.4 0 0 42.93 20.41 0 0 42.91 20.41 0 0 64.38 20.41 0 0 42.92 20.41 0 0 85.84 20.4 0 0 85.84 20.41 0 0 107.29 20.41 0 0 1866.95 -2040.81 0 0 1351.93zm-13897.97 -6266.09l3653.06 0 0 965.67 -1244.9 0 0 6587.98 -1224.49 0 0 -6587.98 -1183.67 0 0 -965.67z"/>
   <polygon class="fil0" points="3359.74,93.41 3380.15,93.41 3380.15,157.78 3400.56,157.78 3400.56,222.16 3420.97,222.16 3420.97,286.53 3441.38,286.53 3441.38,350.92 3461.78,350.92 3461.78,415.29 3482.19,415.29 3482.19,479.67 3502.6,479.67 3502.6,544.05 3523.01,544.05 3523.01,608.42 3543.42,608.42 3543.42,672.81 3563.83,672.81 3563.83,737.18 3584.23,737.18 3584.23,801.56 3604.64,801.56 3604.64,865.94 3625.05,865.94 3625.05,930.31 3645.46,930.31 3645.46,994.69 3665.87,994.69 3665.87,1059.07 3686.27,1059.07 3686.27,1123.45 3706.68,1123.45 3706.68,1187.83 3727.1,1187.83 3727.1,1252.2 3747.5,1252.2 3747.5,1316.58 3767.91,1316.58 3767.91,1380.95 3788.31,1380.95 3788.31,1445.34 3808.72,1445.34 3808.72,1509.72 3829.14,1509.72 3829.14,1574.09 3849.54,1574.09 3849.54,1638.47 3869.95,1638.47 3869.95,1702.84 3890.35,1702.84 3890.35,1767.23 3910.76,1767.23 3910.76,1831.6 3931.18,1831.6 3931.18,1895.98 3951.58,1895.98 3951.58,1960.36 3971.99,1960.36 3971.99,2024.73 3992.4,2024.73 3992.4,2089.11 4012.8,2089.11 4012.8,2153.49 4033.22,2153.49 4033.22,2217.87 4053.62,2217.87 4053.62,2282.25 4074.03,2282.25 4074.03,2346.62 4094.44,2346.62 4094.44,2411 4114.84,2411 4114.84,2475.37 4135.26,2475.37 4135.26,2539.76 4155.67,2539.76 4155.67,2604.14 4176.07,2604.14 4176.07,2668.51 4196.48,2668.51 4196.48,2732.89 4216.88,2732.89 4216.88,2797.26 4237.29,2797.26 4237.29,2861.65 4257.71,2861.65 4257.71,2926.03 4278.11,2926.03 4278.11,2990.4 4298.52,2990.4 4298.52,3054.78 4318.92,3054.78 4318.92,3119.15 4339.33,3119.15 4339.33,3183.54 4359.75,3183.54 4359.75,3247.91 4380.15,3247.91 4380.15,3312.29 4400.56,3312.29 4400.56,3376.67 4420.97,3376.67 4420.97,3441.04 4441.37,3441.04 4441.37,3505.42 4461.79,3505.42 4461.79,3569.8 4482.19,3569.8 4482.19,3634.18 4502.6,3634.18 4502.6,3698.56 4523.01,3698.56 4523.01,3762.93 4543.41,3762.93 4543.41,3827.31 4563.83,3827.31 4563.83,3891.68 4584.24,3891.68 4584.24,3956.07 4604.64,3956.07 4604.64,4020.45 4625.05,4020.45 4625.05,4084.82 4645.45,4084.82 4645.45,4149.2 4665.87,4149.2 4665.87,4213.57 4686.28,4213.57 4686.28,4277.96 4706.68,4277.96 4706.68,4342.33 4727.09,4342.33 4727.09,4406.71 4747.49,4406.71 4747.49,4471.09 4767.91,4471.09 4767.91,4535.46 4788.32,4535.46 4788.32,4599.84 4808.72,4599.84 4808.72,4664.22 4829.13,4664.22 4829.13,4728.6 4849.54,4728.6 4849.54,4792.98 4869.95,4792.98 4869.95,4857.35 4890.36,4857.35 4890.36,8355.21 6298.52,8355.21 6298.52,4857.35 6318.93,4857.35 6318.93,4792.98 6339.34,4792.98 6339.34,4728.6 6359.75,4728.6 6359.75,4664.22 6380.15,4664.22 6380.15,4599.84 6400.56,4599.84 6400.56,4535.46 6420.97,4535.46 6420.97,4471.09 6441.38,4471.09 6441.38,4406.71 6461.79,4406.71 6461.79,4342.33 6482.19,4342.33 6482.19,4277.96 6502.6,4277.96 6502.6,4213.57 6523.02,4213.57 6523.02,4149.2 6543.42,4149.2 6543.42,4084.82 6563.83,4084.82 6563.83,4020.45 6584.23,4020.45 6584.23,3956.07 6604.64,3956.07 6604.64,3891.68 6625.06,3891.68 6625.06,3827.31 6645.46,3827.31 6645.46,3762.93 6665.87,3762.93 6665.87,3698.56 6686.27,3698.56 6686.27,3634.18 6706.68,3634.18 6706.68,3569.8 6727.1,3569.8 6727.1,3505.42 6747.5,3505.42 6747.5,3441.04 6767.91,3441.04 6767.91,3376.67 6788.32,3376.67 6788.32,3312.29 6808.72,3312.29 6808.72,3247.91 6829.13,3247.91 6829.13,3183.54 6849.54,3183.54 6849.54,3119.15 6869.95,3119.15 6869.95,3054.78 6890.36,3054.78 6890.36,2990.4 6910.76,2990.4 6910.76,2926.03 6931.17,2926.03 6931.17,2861.65 6951.59,2861.65 6951.59,2797.26 6971.99,2797.26 6971.99,2732.89 6992.4,2732.89 6992.4,2668.51 7012.8,2668.51 7012.8,2604.14 7033.21,2604.14 7033.21,2539.76 7053.63,2539.76 7053.63,2475.37 7074.03,2475.37 7074.03,2411 7094.44,2411 7094.44,2346.62 7114.84,2346.62 7114.84,2282.25 7135.25,2282.25 7135.25,2217.87 7155.67,2217.87 7155.67,2153.49 7176.07,2153.49 7176.07,2089.11 7196.48,2089.11 7196.48,2024.73 7216.89,2024.73 7216.89,1960.36 7237.29,1960.36 7237.29,1895.98 7257.71,1895.98 7257.71,1831.6 7278.11,1831.6 7278.11,1767.23 7298.52,1767.23 7298.52,1702.84 7318.93,1702.84 7318.93,1638.47 7339.33,1638.47 7339.33,1574.09 7359.75,1574.09 7359.75,1509.72 7380.16,1509.72 7380.16,1445.34 7400.56,1445.34 7400.56,1380.95 7420.97,1380.95 7420.97,1316.58 7441.37,1316.58 7441.37,1252.2 7461.79,1252.2 7461.79,1187.83 7482.2,1187.83 7482.2,1123.45 7502.6,1123.45 7502.6,1059.07 7523.01,1059.07 7523.01,994.69 7543.41,994.69 7543.41,930.31 7563.83,930.31 7563.83,865.94 7584.24,865.94 7584.24,801.56 7604.64,801.56 7604.64,737.18 7625.05,737.18 7625.05,672.81 7645.46,672.81 7645.46,608.42 7665.87,608.42 7665.87,544.05 7686.28,544.05 7686.28,479.67 7706.69,479.67 7706.69,415.29 7727.09,415.29 7727.09,350.92 7747.5,350.92 7747.5,286.53 7767.91,286.53 7767.91,243.62 7788.32,243.62 7788.32,179.24 7808.73,179.24 7808.73,114.87 7829.13,114.87 7829.13,50.48 7849.54,50.48 7849.54,7.57 6359.75,7.57 6359.75,71.94 6339.34,71.94 6339.34,157.78 6318.93,157.78 6318.93,243.62 6298.52,243.62 6298.52,329.46 6278.11,329.46 6278.11,393.83 6257.7,393.83 6257.7,479.67 6237.3,479.67 6237.3,565.51 6216.89,565.51 6216.89,629.88 6196.48,629.88 6196.48,715.72 6176.07,715.72 6176.07,801.56 6155.66,801.56 6155.66,887.4 6135.26,887.4 6135.26,951.77 6114.85,951.77 6114.85,1037.61 6094.43,1037.61 6094.43,1123.45 6074.03,1123.45 6074.03,1209.29 6053.62,1209.29 6053.62,1295.13 6033.22,1295.13 6033.22,1359.5 6012.81,1359.5 6012.81,1445.34 5992.39,1445.34 5992.39,1531.18 5971.99,1531.18 5971.99,1617 5951.58,1617 5951.58,1702.84 5931.18,1702.84 5931.18,1767.23 5910.77,1767.23 5910.77,1853.07 5890.35,1853.07 5890.35,1938.89 5869.95,1938.89 5869.95,2024.73 5849.54,2024.73 5849.54,2110.57 5829.13,2110.57 5829.13,2217.87 5808.73,2217.87 5808.73,2325.16 5788.31,2325.16 5788.31,2432.46 5767.91,2432.46 5767.91,2539.76 5747.5,2539.76 5747.5,2647.05 5727.09,2647.05 5727.09,2754.35 5706.69,2754.35 5706.69,2840.19 5686.27,2840.19 5686.27,2947.49 5665.86,2947.49 5665.86,3054.78 5645.46,3054.78 5645.46,3140.61 5604.65,3140.61 5604.65,3119.15 5584.23,3119.15 5584.23,3011.86 5563.82,3011.86 5563.82,2926.03 5543.42,2926.03 5543.42,2818.73 5523.01,2818.73 5523.01,2711.44 5502.61,2711.44 5502.61,2625.6 5482.2,2625.6 5482.2,2518.3 5461.78,2518.3 5461.78,2432.46 5441.38,2432.46 5441.38,2325.16 5420.97,2325.16 5420.97,2239.33 5400.56,2239.33 5400.56,2153.49 5380.16,2153.49 5380.16,2046.19 5359.74,2046.19 5359.74,1960.36 5339.33,1960.36 5339.33,1874.52 5318.93,1874.52 5318.93,1788.68 5298.52,1788.68 5298.52,1681.39 5278.12,1681.39 5278.12,1595.55 5257.7,1595.55 5257.7,1509.72 5237.29,1509.72 5237.29,1423.88 5216.89,1423.88 5216.89,1338.04 5196.48,1338.04 5196.48,1273.66 5176.08,1273.66 5176.08,1187.83 5155.66,1187.83 5155.66,1123.45 5135.25,1123.45 5135.25,1037.61 5114.85,1037.61 5114.85,973.24 5094.44,973.24 5094.44,887.4 5074.03,887.4 5074.03,823.02 5053.62,823.02 5053.62,737.18 5033.21,737.18 5033.21,651.35 5012.81,651.35 5012.81,565.51 4992.4,565.51 4992.4,479.67 4971.99,479.67 4971.99,393.83 4951.58,393.83 4951.58,307.99 4931.17,307.99 4931.17,222.16 4910.76,222.16 4910.76,136.32 4890.36,136.32 4890.36,50.48 4869.95,50.48 4869.95,7.57 3359.74,7.57 "/>
   <polygon class="fil0" points="12808.73,7389.54 12829.13,7389.54 12829.13,7625.6 12849.55,7625.6 12849.55,7754.35 12869.96,7754.35 12869.96,7840.19 12890.36,7840.19 12890.36,7904.56 12910.77,7904.56 12910.77,7947.49 12931.17,7947.49 12931.17,7990.4 12951.59,7990.4 12951.59,8011.86 12972,8011.86 12972,8054.78 12992.4,8054.78 12992.4,8076.24 13012.81,8076.24 13012.81,8119.16 13033.21,8119.16 13033.21,8140.61 13053.63,8140.61 13053.63,8162.08 13074.04,8162.08 13074.04,8183.54 13094.44,8183.54 13094.44,8205 13135.26,8205 13135.26,8226.45 13155.67,8226.45 13155.67,8247.91 13176.08,8247.91 13176.08,8269.38 13216.89,8269.38 13216.89,8290.83 13257.7,8290.83 13257.7,8312.29 13298.53,8312.29 13298.53,8333.75 13339.34,8333.75 13339.34,8355.21 13380.16,8355.21 13380.16,8376.66 13441.38,8376.66 13441.38,8398.13 13502.61,8398.13 13502.61,8419.59 13584.24,8419.59 13584.24,8441.04 13727.1,8441.04 13727.1,8462.5 13910.77,8462.5 13910.77,8441.04 14053.62,8441.04 14053.62,8419.59 14155.67,8419.59 14155.67,8398.13 14216.89,8398.13 14216.89,8376.66 14257.71,8376.66 14257.71,8355.21 14318.94,8355.21 14318.94,8333.75 14359.75,8333.75 14359.75,8312.29 14400.57,8312.29 14400.57,8290.83 14441.38,8290.83 14441.38,8269.38 14482.19,8269.38 14482.19,8247.91 14502.6,8247.91 14502.6,8226.45 14543.42,8226.45 14543.42,8205 14584.24,8205 14584.24,8183.54 14604.64,8183.54 14604.64,8162.08 14645.47,8162.08 14645.47,8140.61 14665.87,8140.61 14665.87,8119.16 14706.68,8119.16 14706.68,8097.7 14727.1,8097.7 14727.1,8076.24 14747.51,8076.24 14747.51,8054.78 14788.32,8054.78 14788.32,8033.32 14808.72,8033.32 14808.72,8011.86 14849.55,8011.86 14849.55,7990.4 14869.95,7990.4 14869.95,7968.95 14890.36,7968.95 14890.36,7947.49 14910.77,7947.49 14910.77,7926.02 14951.59,7926.02 14951.59,7904.56 14971.99,7904.56 14971.99,7883.11 14992.4,7883.11 14992.4,7861.65 15012.81,7861.65 15012.81,7840.19 15033.22,7840.19 15033.22,7926.02 15053.63,7926.02 15053.63,8033.32 15074.04,8033.32 15074.04,8140.61 15094.44,8140.61 15094.44,8247.91 15114.85,8247.91 15114.85,8333.75 15135.26,8333.75 15135.26,8355.21 16339.34,8355.21 16339.34,2132.03 15033.22,2132.03 15033.22,7174.95 15012.81,7174.95 15012.81,7196.41 14992.4,7196.41 14992.4,7217.87 14951.59,7217.87 14951.59,7239.33 14931.18,7239.33 14931.18,7260.79 14890.36,7260.79 14890.36,7282.24 14849.55,7282.24 14849.55,7303.71 14829.14,7303.71 14829.14,7325.17 14788.32,7325.17 14788.32,7346.62 14747.51,7346.62 14747.51,7368.08 14686.28,7368.08 14686.28,7389.54 14645.47,7389.54 14645.47,7411.01 14563.83,7411.01 14563.83,7432.46 14359.75,7432.46 14359.75,7411.01 14298.53,7411.01 14298.53,7389.54 14257.71,7389.54 14257.71,7368.08 14237.3,7368.08 14237.3,7346.62 14216.89,7346.62 14216.89,7325.17 14196.49,7325.17 14196.49,7282.24 14176.07,7282.24 14176.07,7260.79 14155.67,7260.79 14155.67,7196.41 14135.26,7196.41 14135.26,7024.74 14114.85,7024.74 14114.85,2132.03 12808.73,2132.03 "/>
   <path class="fil0" d="M9216.89 3569.8l20.41 0 0 -128.76 20.41 0 0 -85.84 20.4 0 0 -42.91 20.41 0 0 -42.92 20.42 0 0 -21.46 20.4 0 0 -21.46 20.41 0 0 -21.46 20.4 0 0 -21.45 20.41 0 0 -21.46 20.41 0 0 -21.47 40.82 0 0 -21.46 61.22 0 0 -21.45 102.04 0 0 -21.46 122.46 0 0 21.46 102.04 0 0 21.45 61.22 0 0 21.46 20.4 0 0 21.47 40.82 0 0 21.46 20.41 0 0 21.45 20.41 0 0 21.46 20.4 0 0 21.46 20.42 0 0 21.46 20.4 0 0 42.92 20.41 0 0 42.91 20.41 0 0 64.38 20.4 0 0 107.3 20.42 0 0 3454.94 -20.42 0 0 107.3 -20.4 0 0 64.37 -20.41 0 0 42.92 -20.41 0 0 42.92 -20.4 0 0 21.46 -20.42 0 0 21.45 -20.4 0 0 21.47 -20.41 0 0 21.46 -20.41 0 0 21.45 -20.4 0 0 21.46 -40.82 0 0 21.46 -40.82 0 0 21.47 -61.23 0 0 21.45 -224.48 0 0 -21.45 -81.64 0 0 -21.47 -40.81 0 0 -21.46 -40.82 0 0 -21.46 -20.41 0 0 -21.45 -20.41 0 0 -21.46 -20.4 0 0 -21.47 -20.41 0 0 -21.45 -20.4 0 0 -42.92 -20.42 0 0 -21.46 -20.41 0 0 -64.38 -20.4 0 0 -64.38 -20.41 0 0 -107.29 -20.41 0 0 -3390.56zm163.26 -1480.69l-163.26 0 0 21.46 -122.45 0 0 21.46 -81.63 0 0 21.46 -81.63 0 0 21.46 -61.23 0 0 21.46 -61.22 0 0 21.46 -40.82 0 0 21.46 -40.81 0 0 21.45 -61.23 0 0 21.47 -20.41 0 0 21.46 -40.81 0 0 21.45 -40.82 0 0 21.46 -40.82 0 0 21.46 -20.4 0 0 21.47 -40.83 0 0 21.45 -20.4 0 0 21.46 -20.41 0 0 21.46 -20.4 0 0 21.45 -20.42 0 0 21.47 -20.41 0 0 21.46 -20.4 0 0 21.46 -20.41 0 0 21.45 -20.4 0 0 21.46 -20.42 0 0 21.47 -20.41 0 0 21.46 -20.4 0 0 21.45 -20.41 0 0 21.46 -20.41 0 0 42.93 -20.41 0 0 21.45 -20.41 0 0 42.92 -20.4 0 0 42.92 -20.41 0 0 42.92 -20.41 0 0 21.45 -20.4 0 0 64.39 -20.42 0 0 42.91 -20.41 0 0 64.38 -20.4 0 0 64.37 -20.41 0 0 64.39 -20.4 0 0 85.83 -20.42 0 0 128.76 -20.41 0 0 171.67 -20.4 0 0 3390.56 20.4 0 0 171.67 20.41 0 0 107.3 20.42 0 0 85.84 20.4 0 0 85.84 20.41 0 0 64.37 20.4 0 0 42.92 20.41 0 0 64.37 20.42 0 0 42.93 20.4 0 0 42.91 20.41 0 0 42.92 20.41 0 0 21.47 20.4 0 0 42.91 20.41 0 0 42.91 20.41 0 0 21.47 20.41 0 0 21.46 20.41 0 0 42.91 20.4 0 0 21.46 20.41 0 0 21.47 20.42 0 0 21.46 20.4 0 0 21.45 20.41 0 0 21.46 20.4 0 0 21.46 20.41 0 0 21.46 20.42 0 0 21.46 40.81 0 0 21.46 20.4 0 0 21.46 20.41 0 0 21.45 40.82 0 0 21.47 20.41 0 0 21.46 40.81 0 0 21.46 40.82 0 0 21.45 40.82 0 0 21.46 40.82 0 0 21.47 40.81 0 0 21.45 40.81 0 0 21.46 61.23 0 0 21.46 61.23 0 0 21.46 61.22 0 0 21.45 81.63 0 0 21.47 102.05 0 0 21.46 122.44 0 0 21.45 265.31 0 0 21.46 306.13 0 0 -21.46 244.89 0 0 -21.45 122.45 0 0 -21.46 102.04 0 0 -21.47 81.63 0 0 -21.45 61.23 0 0 -21.46 61.22 0 0 -21.46 61.23 0 0 -21.46 40.81 0 0 -21.45 61.23 0 0 -21.47 40.81 0 0 -21.46 40.82 0 0 -21.45 20.41 0 0 -21.46 40.81 0 0 -21.46 20.41 0 0 -21.47 40.82 0 0 -21.45 20.41 0 0 -21.46 40.81 0 0 -21.46 20.41 0 0 -21.46 20.41 0 0 -21.46 20.41 0 0 -21.46 20.41 0 0 -21.46 20.4 0 0 -21.45 20.41 0 0 -21.46 20.42 0 0 -21.47 20.4 0 0 -21.46 20.41 0 0 -21.45 20.4 0 0 -42.92 20.41 0 0 -21.47 20.42 0 0 -42.91 20.4 0 0 -21.46 20.41 0 0 -42.92 20.4 0 0 -42.92 20.41 0 0 -42.91 20.42 0 0 -42.93 20.4 0 0 -42.91 20.41 0 0 -64.38 20.41 0 0 -64.37 20.4 0 0 -64.39 20.42 0 0 -85.83 20.4 0 0 -107.3 20.41 0 0 -150.21 20.41 0 0 -3476.4 -20.41 0 0 -171.68 -20.41 0 0 -107.29 -20.4 0 0 -85.83 -20.42 0 0 -64.38 -20.4 0 0 -64.39 -20.41 0 0 -42.91 -20.41 0 0 -64.37 -20.4 0 0 -42.93 -20.42 0 0 -42.91 -20.41 0 0 -42.93 -20.4 0 0 -21.45 -20.41 0 0 -42.92 -20.4 0 0 -21.45 -20.42 0 0 -42.93 -20.41 0 0 -21.46 -20.4 0 0 -21.45 -20.41 0 0 -21.46 -20.4 0 0 -42.93 -20.42 0 0 -21.45 -20.41 0 0 -21.46 -20.4 0 0 -21.46 -20.41 0 0 -21.47 -40.82 0 0 -21.45 -20.41 0 0 -21.46 -20.4 0 0 -21.46 -20.41 0 0 -21.45 -40.82 0 0 -21.47 -20.41 0 0 -21.46 -40.81 0 0 -21.46 -40.82 0 0 -21.45 -20.41 0 0 -21.46 -40.81 0 0 -21.47 -40.83 0 0 -21.45 -61.21 0 0 -21.46 -40.82 0 0 -21.46 -61.22 0 0 -21.46 -61.23 0 0 -21.46 -81.63 0 0 -21.46 -81.63 0 0 -21.46 -122.45 0 0 -21.46 -163.27 0 0 -21.45 -612.25 0 0 21.45z"/>
   <polygon class="fil0" points="11788.32,13677.1 11706.69,13677.1 11706.69,13698.55 11645.46,13698.55 11645.46,13720.02 11604.65,13720.02 11604.65,13741.48 11563.83,13741.48 11563.83,13762.94 11523.02,13762.94 11523.02,13784.39 11502.61,13784.39 11502.61,13805.85 11461.79,13805.85 11461.79,13827.31 11420.97,13827.31 11420.97,13848.78 11400.57,13848.78 11400.57,13870.23 11359.75,13870.23 11359.75,17432.47 11380.15,17432.47 11380.15,17453.93 11420.97,17453.93 11420.97,17475.38 11461.79,17475.38 11461.79,17496.84 11482.19,17496.84 11482.19,17518.3 11523.02,17518.3 11523.02,17539.77 11563.83,17539.77 11563.83,17561.22 11604.65,17561.22 11604.65,17582.68 11645.46,17582.68 11645.46,17604.14 11706.69,17604.14 11706.69,17625.59 11767.91,17625.59 11767.91,17647.06 12012.8,17647.06 12012.8,17625.59 12053.63,17625.59 12053.63,17604.14 12094.44,17604.14 12094.44,17582.68 12114.84,17582.68 12114.84,17561.22 12135.26,17561.22 12135.26,17539.77 12155.67,17539.77 12155.67,17496.84 12176.07,17496.84 12176.07,17453.93 12196.48,17453.93 12196.48,17368.09 12216.89,17368.09 12216.89,13934.6 12196.48,13934.6 12196.48,13848.78 12176.07,13848.78 12176.07,13805.85 12155.67,13805.85 12155.67,13762.94 12135.26,13762.94 12135.26,13741.48 12114.84,13741.48 12114.84,13720.02 12094.44,13720.02 12094.44,13698.55 12053.63,13698.55 12053.63,13677.1 11992.4,13677.1 11992.4,13655.64 11788.32,13655.64 "/>
   <polygon class="fil0" points="16094.45,13677.1 16012.81,13677.1 16012.81,13698.55 15972,13698.55 15972,13720.02 15931.18,13720.02 15931.18,13741.48 15910.77,13741.48 15910.77,13762.94 15869.96,13762.94 15869.96,13805.85 15849.54,13805.85 15849.54,13827.31 15829.13,13827.31 15829.13,13848.78 15808.73,13848.78 15808.73,13913.15 15788.32,13913.15 15788.32,13998.99 15767.92,13998.99 15767.92,15029.04 16665.87,15029.04 16665.87,14020.44 16645.46,14020.44 16645.46,13913.15 16625.06,13913.15 16625.06,13870.23 16604.65,13870.23 16604.65,13827.31 16584.24,13827.31 16584.24,13805.85 16563.83,13805.85 16563.83,13784.39 16543.42,13784.39 16543.42,13762.94 16523.02,13762.94 16523.02,13741.48 16502.61,13741.48 16502.61,13720.02 16461.79,13720.02 16461.79,13698.55 16420.97,13698.55 16420.97,13677.1 16339.34,13677.1 16339.34,13655.64 16094.45,13655.64 "/>
  </g>
  <rect class="fil1" x="-7.61" y="7.58" width="20000" height="20000"/>
 </g>
</svg>
